<svg width="24" height="24" viewBox="0 0 24 24" fill="none" xmlns="http://www.w3.org/2000/svg">
<path d="M12.2041 2.47754C12.3389 2.49632 12.4711 2.5331 12.5957 2.58789L12.7773 2.68359L12.9434 2.80371C13.0483 2.89075 13.1415 2.99193 13.2188 3.10449L13.3232 3.28125V3.28223L15.4023 7.47266H15.4014C15.466 7.60281 15.5628 7.71564 15.6816 7.80176C15.8007 7.88791 15.9396 7.94438 16.0859 7.96582H16.085L20.7314 8.64258H20.7324C20.936 8.67194 21.1312 8.74423 21.3047 8.85254L21.4717 8.97363L21.6191 9.11621C21.7104 9.21751 21.7875 9.33153 21.8477 9.4541L21.9258 9.64551L21.9756 9.84473C22.0115 10.047 22.0048 10.2561 21.9551 10.457C21.9052 10.6579 21.8134 10.8449 21.6875 11.0068L21.5508 11.1602L18.1885 14.418C18.0833 14.52 18.0052 14.6461 17.96 14.7842C17.9149 14.9221 17.9044 15.0691 17.9287 15.2119L18.7207 19.8096C18.7692 20.0826 18.7399 20.3643 18.6357 20.6211C18.5315 20.8779 18.3568 21.0998 18.1328 21.2617C17.9089 21.4236 17.6443 21.519 17.3691 21.5381C17.094 21.5571 16.8182 21.4994 16.5742 21.3701V21.3691L12.4238 19.1982C12.2934 19.1302 12.1477 19.0938 12 19.0938C11.889 19.0938 11.7787 19.1145 11.6758 19.1533L11.5752 19.1982L7.42285 21.3701C7.17898 21.4986 6.90451 21.5575 6.62988 21.5381C6.35527 21.5186 6.09062 21.4225 5.86719 21.2607C5.64386 21.099 5.46932 20.8773 5.36523 20.6211C5.28725 20.4289 5.25081 20.2224 5.25781 20.0166L5.2793 19.8115L6.07129 15.2129L6.08398 15.1045C6.08915 14.9966 6.07481 14.8876 6.04102 14.7842C6.00714 14.6807 5.95421 14.5838 5.88574 14.499L5.81152 14.418L2.45312 11.1631L2.45215 11.1641C2.25323 10.9726 2.11126 10.7284 2.04395 10.46C1.97672 10.1914 1.98651 9.90869 2.07227 9.64551L2.15039 9.4541C2.24099 9.26921 2.36955 9.10453 2.52832 8.97168L2.69531 8.85059C2.86979 8.74193 3.06582 8.67048 3.27051 8.6416L7.91406 7.96582C8.06062 7.9446 8.20013 7.88887 8.31934 7.80273C8.4384 7.71666 8.53387 7.60293 8.59863 7.47266L10.6768 3.28223V3.28125C10.7994 3.03478 10.9891 2.82793 11.2227 2.68359C11.4563 2.53926 11.7258 2.46295 12 2.46289L12.2041 2.47754ZM10.3906 8.36133C10.1814 8.78283 9.87249 9.14715 9.49121 9.42285C9.10985 9.69852 8.66682 9.87688 8.20117 9.94434L8.20215 9.94531L4.6084 10.4668L7.20312 12.9814V12.9824C7.54127 13.3102 7.79501 13.7154 7.94141 14.1631C8.08775 14.611 8.12294 15.0884 8.04297 15.5527L7.42969 19.1094L10.6484 17.4258L10.8076 17.3486C11.1819 17.1811 11.5887 17.0938 12 17.0938C12.47 17.0938 12.9339 17.2081 13.3506 17.4258L16.5703 19.1104L15.957 15.5518V15.5508C15.8775 15.087 15.9124 14.6104 16.0586 14.1631C16.205 13.7156 16.4589 13.3102 16.7969 12.9824L19.3906 10.4678L15.7969 9.94531C15.332 9.87734 14.8895 9.69832 14.5088 9.42285C14.1757 9.18165 13.8976 8.8721 13.6934 8.5166L13.6104 8.36133L12 5.11523L10.3906 8.36133ZM20.5205 10.1035H20.5215V10.1006H20.5205V10.1035Z" fill="#FF9500"/>
</svg>
