<svg width="80" height="80" viewBox="0 0 80 80" fill="none" xmlns="http://www.w3.org/2000/svg">
<g clip-path="url(#clip0_290_2653)">
<path d="M45.551 71.3546C51.3782 68.4404 53.7396 61.3542 50.8254 55.527C47.9112 49.6999 40.8249 47.3385 34.9978 50.2527C29.1706 53.1669 26.8092 60.2531 29.7234 66.0803C32.6376 71.9074 39.7239 74.2688 45.551 71.3546Z" fill="#F9AC00"/>
<path fill-rule="evenodd" clip-rule="evenodd" d="M39.917 72.5827C33.5723 72.3878 28.4885 67.1841 28.4885 60.7921C28.4885 54.4 33.5723 49.1963 39.917 49.0016C46.2617 49.1963 51.3454 54.4002 51.3454 60.7921C51.3454 67.1839 46.2617 72.3878 39.917 72.5827Z" fill="#FDC72E"/>
<path d="M41.7839 70.0839C46.9145 69.2484 50.3964 64.4118 49.5608 59.2812C48.7252 54.1506 43.8887 50.6688 38.7581 51.5043C33.6274 52.3399 30.1456 57.1765 30.9812 62.3071C31.8168 67.4377 36.6533 70.9195 41.7839 70.0839Z" fill="#F19A00"/>
<path fill-rule="evenodd" clip-rule="evenodd" d="M40.8909 51.3999C45.807 51.7121 49.6978 55.7974 49.6978 60.7921C49.6978 65.7868 45.807 69.8721 40.8909 70.1843C35.975 69.8721 32.0842 65.7868 32.0842 60.7921C32.0842 55.7974 35.975 51.7121 40.8909 51.3999Z" fill="#F9AC00"/>
<path fill-rule="evenodd" clip-rule="evenodd" d="M58.4653 44.2994C58.4505 44.4008 58.4159 44.4983 58.3634 44.5863C58.3109 44.6743 58.2415 44.7511 58.1594 44.8123C58.0772 44.8735 57.9837 44.9179 57.8844 44.9431C57.785 44.9682 57.6817 44.9734 57.5803 44.9586C57.4789 44.9438 57.3815 44.9091 57.2935 44.8566C57.2054 44.8042 57.1286 44.7348 57.0674 44.6526C57.0062 44.5705 56.9618 44.477 56.9367 44.3777C56.9116 44.2783 56.9063 44.175 56.9211 44.0736L57.01 43.4785L53.85 46.6385C53.7027 46.7808 53.5053 46.8595 53.3005 46.8577C53.0956 46.856 52.8997 46.7738 52.7548 46.6289C52.61 46.4841 52.5278 46.2882 52.5261 46.0833C52.5243 45.8785 52.603 45.6811 52.7453 45.5338L55.9053 42.3738L55.3102 42.4627C55.1054 42.4926 54.8971 42.44 54.7311 42.3164C54.5652 42.1927 54.4551 42.0082 54.4252 41.8035C54.3952 41.5987 54.4479 41.3904 54.5715 41.2244C54.6951 41.0585 54.8796 40.9484 55.0844 40.9185L58.0021 40.4825C58.1234 40.4621 58.2478 40.4706 58.3652 40.5074C58.4826 40.5442 58.5896 40.6082 58.6776 40.6942C58.7655 40.7803 58.8319 40.8859 58.8712 41.0025C58.9105 41.1191 58.9218 41.2433 58.9039 41.365L58.4655 44.2994H58.4653ZM26.1319 47.2275C26.2742 47.3749 26.353 47.5722 26.3512 47.7771C26.3494 47.9819 26.2672 48.1778 26.1224 48.3227C25.9775 48.4675 25.7816 48.5497 25.5767 48.5515C25.3719 48.5533 25.1746 48.4745 25.0272 48.3322L21.8672 45.1722L21.9561 45.7674C21.9861 45.9721 21.9334 46.1804 21.8098 46.3464C21.6862 46.5124 21.5017 46.6224 21.2969 46.6524C21.0921 46.6823 20.8838 46.6297 20.7179 46.5061C20.5519 46.3824 20.4418 46.1979 20.4119 45.9932L19.976 43.0755C19.9555 42.9542 19.964 42.8297 20.0008 42.7123C20.0376 42.5949 20.1016 42.4879 20.1877 42.4C20.2737 42.312 20.3793 42.2457 20.4959 42.2063C20.6125 42.167 20.7367 42.1558 20.8585 42.1736L23.7928 42.6121C23.9976 42.642 24.1821 42.7521 24.3057 42.918C24.4294 43.084 24.482 43.2923 24.4521 43.4971C24.4221 43.7018 24.3121 43.8863 24.1461 44.01C23.9801 44.1336 23.7718 44.1862 23.5671 44.1563L22.9719 44.0674L26.1319 47.2275ZM40.7828 41.2211C40.7828 41.4283 40.7005 41.627 40.554 41.7735C40.4075 41.9201 40.2088 42.0024 40.0016 42.0024C39.7944 42.0024 39.5957 41.9201 39.4492 41.7735C39.3026 41.627 39.2203 41.4283 39.2203 41.2211V30.61L38.8624 31.0939C38.7384 31.2572 38.555 31.365 38.352 31.394C38.149 31.4229 37.9428 31.3707 37.7781 31.2485C37.6134 31.1264 37.5035 30.9443 37.4722 30.7416C37.441 30.539 37.4909 30.3322 37.6111 30.1661L39.3761 27.7811C39.4494 27.6823 39.545 27.6023 39.6551 27.5475C39.7653 27.4928 39.8868 27.4649 40.0098 27.4662C40.1328 27.4674 40.2537 27.4978 40.3627 27.5548C40.4717 27.6118 40.5657 27.6938 40.6369 27.7941L42.3924 30.1661C42.5126 30.3322 42.5625 30.539 42.5312 30.7416C42.5 30.9443 42.3901 31.1264 42.2254 31.2485C42.0607 31.3707 41.8545 31.4229 41.6515 31.394C41.4485 31.365 41.2651 31.2572 41.1411 31.0939L40.7831 30.61V41.2211H40.7828Z" fill="#7986BF"/>
<path fill-rule="evenodd" clip-rule="evenodd" d="M16.8389 42.5988C16.8389 43.5735 16.0414 44.3708 15.0669 44.3708H8.54191C7.56723 44.3708 6.76988 43.5733 6.76988 42.5988V41.6585C6.76988 36.7814 1.73535 35.4116 1.73535 28.8574C1.73535 22.8439 6.76988 19.8372 11.8044 19.8372C16.8389 19.8372 21.8735 22.8439 21.8735 28.8574C21.8735 35.4116 16.8389 36.7814 16.8389 41.6585V42.5988Z" fill="#FCDB35"/>
<path fill-rule="evenodd" clip-rule="evenodd" d="M16.8388 42.5988C16.8388 43.5734 16.0413 44.3708 15.0668 44.3708H10.8849C9.9104 44.3708 9.1129 43.5733 9.1129 42.5988V41.6584C9.1129 36.7814 4.07837 35.4116 4.07837 28.8573C4.07837 23.3113 8.36071 20.3228 12.9759 19.8917C17.591 20.3228 21.8734 23.3114 21.8734 28.8573C21.8734 35.4116 16.8388 36.7814 16.8388 41.6584V42.5988Z" fill="#FFEB87"/>
<path d="M50.6242 17.2215C53.0534 11.3626 50.2731 4.64359 44.4141 2.21432C38.5551 -0.214955 31.8362 2.56538 29.4069 8.42438C26.9776 14.2834 29.758 21.0023 35.6169 23.4316C41.4759 25.8609 48.1949 23.0805 50.6242 17.2215Z" fill="#B4DAF0"/>
<path fill-rule="evenodd" clip-rule="evenodd" d="M41.1424 1.39551C46.9495 1.96816 51.486 6.86598 51.486 12.8236C51.486 18.7813 46.9495 23.6791 41.1424 24.2518C35.3354 23.6791 30.7988 18.7813 30.7988 12.8236C30.7988 6.86598 35.3354 1.96816 41.1424 1.39551Z" fill="#C8E8FB"/>
<path d="M40.0015 14.8405C42.4211 14.8405 44.3825 12.879 44.3825 10.4594C44.3825 8.03979 42.4211 6.07831 40.0015 6.07831C37.5818 6.07831 35.6204 8.03979 35.6204 10.4594C35.6204 12.879 37.5818 14.8405 40.0015 14.8405Z" fill="#DEA368"/>
<path fill-rule="evenodd" clip-rule="evenodd" d="M40.9419 6.18005C42.9091 6.61083 44.3816 8.36302 44.3816 10.4594C44.3816 12.5558 42.9089 14.308 40.9419 14.7388C38.9747 14.308 37.5022 12.5558 37.5022 10.4594C37.5022 8.36302 38.9747 6.61083 40.9419 6.18005Z" fill="#E6B17C"/>
<path fill-rule="evenodd" clip-rule="evenodd" d="M40.0007 14.8404H40.0009C43.8181 14.8404 47.1362 17.0852 48.7006 20.3201C46.5946 22.762 43.4784 24.3077 40.0009 24.3077C36.5234 24.3077 33.407 22.7618 31.301 20.3201C32.8654 17.0852 36.1837 14.8404 40.0007 14.8404Z" fill="#2A93FC"/>
<path fill-rule="evenodd" clip-rule="evenodd" d="M41.1284 14.9068C44.4632 15.2993 47.2924 17.4085 48.7004 20.3202C46.5945 22.762 43.4782 24.3079 40.0005 24.3079C37.461 24.3079 35.1143 23.4834 33.2129 22.0877C34.6965 17.4851 37.8516 15.3012 41.1284 14.9068Z" fill="#4EB1FC"/>
<path fill-rule="evenodd" clip-rule="evenodd" d="M39.5033 54.3346C39.5033 54.1274 39.5856 53.9287 39.7321 53.7822C39.8786 53.6357 40.0774 53.5533 40.2846 53.5533C40.4918 53.5533 40.6905 53.6357 40.837 53.7822C40.9835 53.9287 41.0658 54.1274 41.0658 54.3346V55.3926C41.1035 55.3993 41.141 55.4066 41.1783 55.4144C41.7355 55.5308 42.268 55.7615 42.71 56.1068C43.2592 56.5358 43.6635 57.1327 43.805 57.8983C43.8381 58.0997 43.7908 58.3061 43.6734 58.473C43.5559 58.6399 43.3776 58.754 43.1768 58.7908C42.9761 58.8276 42.7689 58.7841 42.5999 58.6697C42.4309 58.5553 42.3135 58.3792 42.273 58.1791C42.2067 57.8207 42.0141 57.5385 41.7517 57.3335C41.5569 57.1813 41.3214 57.0674 41.0657 56.9918V60.2691C41.1242 60.288 41.1819 60.3072 41.2383 60.3269C42.0947 60.6262 42.868 61.0826 43.3458 61.7618C43.7824 62.3824 43.9639 63.1469 43.741 64.0846C43.5385 64.9362 42.9378 65.5462 42.1591 65.9024C41.8221 66.0566 41.4503 66.1615 41.0657 66.2158V67.2493C41.0657 67.4565 40.9833 67.6552 40.8368 67.8017C40.6903 67.9482 40.4916 68.0305 40.2844 68.0305C40.0772 68.0305 39.8785 67.9482 39.732 67.8017C39.5855 67.6552 39.5032 67.4565 39.5032 67.2493V66.1605C39.1264 66.0802 38.761 65.9507 38.4263 65.7705C37.5975 65.3244 36.9507 64.5805 36.7489 63.5174C36.7149 63.316 36.7613 63.1092 36.8782 62.9416C36.9951 62.7741 37.1731 62.6591 37.374 62.6215C37.5748 62.5839 37.7823 62.6266 37.9519 62.7405C38.1216 62.8545 38.2396 63.0304 38.2808 63.2305C38.3839 63.7744 38.7253 64.1608 39.1647 64.3973C39.2725 64.4552 39.386 64.5049 39.5032 64.5462V61.4251C38.8852 61.2276 38.2742 60.9743 37.7891 60.5116C37.2166 59.9657 36.9177 59.2843 36.8638 58.5949C36.8074 57.8726 37.026 57.143 37.4853 56.5552C37.9703 55.9343 38.7053 55.5488 39.5032 55.3977L39.5033 54.3346ZM41.0658 61.9304V64.6349C41.2194 64.6009 41.369 64.5512 41.5124 64.4865C41.8699 64.323 42.1403 64.0651 42.2214 63.7246C42.3291 63.2716 42.2567 62.924 42.0703 62.6591C41.8571 62.3558 41.4955 62.1169 41.0658 61.9304ZM39.5033 59.7691V57.0008C39.1782 57.1048 38.8977 57.276 38.7122 57.5135C38.4977 57.7876 38.3936 58.1321 38.4203 58.4791C38.4453 58.7996 38.5885 59.1204 38.8633 59.3826C39.0267 59.5385 39.2503 59.6629 39.5033 59.7693V59.7691Z" fill="#FCDB35"/>
<path fill-rule="evenodd" clip-rule="evenodd" d="M52.6908 49.4466C52.6908 49.2403 52.7727 49.0423 52.9187 48.8964C53.0646 48.7505 53.2625 48.6685 53.4689 48.6685C53.6753 48.6685 53.8732 48.7505 54.0191 48.8964C54.165 49.0423 54.247 49.2403 54.247 49.4466L54.2495 52.0004C54.2496 52.1203 54.2219 52.2386 54.1687 52.3461C54.1155 52.4535 54.0381 52.5472 53.9427 52.6199C53.8473 52.6925 53.7364 52.7421 53.6186 52.7648C53.5009 52.7875 53.3795 52.7827 53.2639 52.7507V52.7512L50.8026 52.0698C50.7041 52.0425 50.6118 51.9961 50.5312 51.9332C50.4505 51.8703 50.3831 51.7922 50.3326 51.7032C50.2822 51.6142 50.2498 51.5162 50.2372 51.4147C50.2247 51.3132 50.2323 51.2102 50.2595 51.1116C50.2868 51.0131 50.3332 50.9208 50.3961 50.8402C50.459 50.7595 50.5371 50.6921 50.6261 50.6416C50.7151 50.5912 50.8131 50.5588 50.9146 50.5462C51.0161 50.5337 51.1191 50.5413 51.2176 50.5685L51.4009 50.6193C50.171 49.2748 48.7081 48.1638 47.0828 47.3399C47.0693 47.3341 47.056 47.3279 47.0429 47.3212C45.0137 46.3008 42.7181 45.7263 40.2847 45.7263C38.0283 45.7263 35.8901 46.2205 33.9728 47.1063C31.9885 48.0244 30.227 49.3618 28.8095 51.0263C28.6736 51.178 28.4838 51.2704 28.2806 51.2839C28.0775 51.2973 27.8771 51.2307 27.7224 51.0984C27.5677 50.966 27.4709 50.7783 27.4528 50.5755C27.4347 50.3727 27.4966 50.1709 27.6254 50.0132C29.1887 48.1775 31.1315 46.7027 33.3198 45.6904C35.4408 44.7105 37.8004 44.1638 40.2848 44.1638C42.9639 44.1638 45.4983 44.7999 47.745 45.9296C47.7594 45.9368 47.7733 45.9444 47.7868 45.9524C49.6423 46.8931 51.3056 48.1723 52.6911 49.7241L52.6908 49.4468V49.4466Z" fill="#43F043"/>
<path fill-rule="evenodd" clip-rule="evenodd" d="M43.9055 77.208C44.0844 77.3108 44.2151 77.4805 44.2689 77.6796C44.3227 77.8788 44.2951 78.0912 44.1924 78.2701C44.0896 78.4489 43.9199 78.5796 43.7208 78.6334C43.5216 78.6872 43.3092 78.6597 43.1303 78.5569L40.9175 77.2822C40.8135 77.2225 40.7246 77.1394 40.658 77.0396C40.5914 76.9398 40.5487 76.8259 40.5334 76.7069C40.5181 76.5879 40.5306 76.4669 40.5698 76.3535C40.609 76.2401 40.674 76.1373 40.7595 76.0532L40.7588 76.0524L42.5794 74.2616C42.7268 74.1173 42.9255 74.0374 43.1317 74.0394C43.338 74.0414 43.5351 74.1251 43.6797 74.2722C43.8244 74.4193 43.9048 74.6177 43.9033 74.824C43.9018 75.0303 43.8186 75.2275 43.6719 75.3725L43.5383 75.504C45.331 75.1084 47.0366 74.3894 48.5714 73.3822C50.471 72.1341 52.117 70.4327 53.3341 68.3251L53.3353 68.3258C54.4617 66.374 55.1022 64.2751 55.2939 62.1699C55.493 59.9838 55.2072 57.7871 54.4788 55.7372C54.4447 55.6407 54.43 55.5383 54.4355 55.436C54.441 55.3338 54.4666 55.2336 54.5108 55.1412C54.6001 54.9546 54.7598 54.8112 54.9549 54.7424C55.1499 54.6736 55.3643 54.6851 55.5509 54.7744C55.7375 54.8637 55.8809 55.0234 55.9497 55.2185C56.757 57.49 57.0622 59.9095 56.8442 62.3104C56.6327 64.6343 55.926 66.9504 54.6828 69.1033L54.6816 69.1057L54.6828 69.1065C53.3435 71.4263 51.5263 73.3026 49.4258 74.6826C47.6734 75.8333 45.7199 76.6437 43.6675 77.0715L43.9053 77.2085L43.9055 77.208Z" fill="#FDC72E"/>
<path fill-rule="evenodd" clip-rule="evenodd" d="M24.2577 55.7212C24.0788 55.8248 23.8661 55.8531 23.6664 55.7998C23.4666 55.7466 23.2962 55.6162 23.1926 55.4373C23.089 55.2585 23.0607 55.0458 23.1139 54.846C23.1672 54.6463 23.2976 54.4759 23.4764 54.3723L25.6867 53.0932C25.7934 53.0314 25.9133 52.9958 26.0364 52.9894C26.1595 52.9829 26.2825 53.0057 26.3951 53.056C26.5076 53.1062 26.6067 53.1825 26.6841 53.2784C26.7615 53.3744 26.8151 53.4874 26.8403 53.608L27.4716 56.0445C27.5196 56.2431 27.4876 56.4525 27.3825 56.6278C27.2774 56.803 27.1077 56.9299 26.9099 56.9812C26.7122 57.0324 26.5022 57.0039 26.3252 56.9017C26.1483 56.7996 26.0186 56.632 25.9641 56.4351L25.9174 56.2545C25.3641 58.0054 25.1343 59.8424 25.2392 61.6757C25.3703 63.9452 26.0199 66.2202 27.2349 68.3248L27.2336 68.3256L27.2349 68.3279C28.3599 70.2766 29.8575 71.8801 31.5867 73.1001C33.3735 74.3597 35.4122 75.217 37.5622 75.6127C37.6628 75.6312 37.7588 75.6692 37.8447 75.7248C37.9305 75.7803 38.0047 75.8522 38.0627 75.9364C38.1208 76.0205 38.1618 76.1153 38.1833 76.2153C38.2047 76.3153 38.2063 76.4185 38.1878 76.5191C38.1694 76.6197 38.1313 76.7157 38.0758 76.8016C38.0203 76.8875 37.9484 76.9616 37.8642 77.0197C37.78 77.0778 37.6852 77.1187 37.5853 77.1402C37.4853 77.1616 37.382 77.1632 37.2814 77.1448C34.9238 76.7107 32.6686 75.7721 30.6896 74.3759C28.7847 73.032 27.1324 71.2613 25.8874 69.1056L25.8861 69.1063C24.5449 66.7834 23.8278 64.2701 23.6828 61.7616C23.5627 59.6702 23.8376 57.5749 24.493 55.5852L24.2575 55.7215L24.2577 55.7212Z" fill="#4EB1FC"/>
<path fill-rule="evenodd" clip-rule="evenodd" d="M12.5819 41.6709C12.5819 41.8773 12.4999 42.0752 12.354 42.2211C12.208 42.367 12.0101 42.449 11.8037 42.449C11.5974 42.449 11.3994 42.367 11.2535 42.2211C11.1076 42.0752 11.0256 41.8773 11.0256 41.6709V36.3904H11.0225C11.0225 36.3131 11.0231 36.2368 11.0239 36.1612C10.6303 36.0045 10.2569 35.7495 9.91812 35.4112C9.12374 34.6178 8.4878 33.3246 8.24499 31.766C8.22937 31.6651 8.23378 31.562 8.25799 31.4627C8.2822 31.3634 8.32573 31.2699 8.38609 31.1874C8.44644 31.105 8.52245 31.0352 8.60977 30.9821C8.69709 30.9291 8.79401 30.8937 8.89499 30.8781C8.99598 30.8624 9.09905 30.8669 9.19833 30.8911C9.2976 30.9153 9.39114 30.9588 9.47359 31.0192C9.55605 31.0795 9.62581 31.1555 9.67889 31.2428C9.73197 31.3302 9.76733 31.4271 9.78296 31.5281C9.97312 32.749 10.4411 33.7317 11.0166 34.3067C11.0548 34.3449 11.0933 34.381 11.1319 34.4151C11.3569 32.5221 11.8967 31.3271 12.4544 30.7171C12.8626 30.2707 13.3223 30.0659 13.7581 30.0734C14.2801 30.0823 14.7123 30.3634 14.973 30.8782C15.2805 31.4857 15.3181 32.5163 14.8101 33.7953C14.3701 34.9031 13.7917 35.6156 13.1562 35.9959C12.9772 36.1039 12.7853 36.1889 12.585 36.249C12.5847 36.2959 12.5845 36.3429 12.5845 36.3906H12.5814V41.671L12.5819 41.6709ZM13.602 31.7668C13.2362 32.1668 12.8812 32.9962 12.7031 34.3676C12.9359 34.1112 13.16 33.7346 13.3639 33.2213C13.6359 32.5363 13.6991 32.0334 13.6336 31.7324L13.6019 31.767L13.602 31.7668Z" fill="#F9AC00"/>
<path fill-rule="evenodd" clip-rule="evenodd" d="M69.0839 19.165L71.5454 20.1861L73.515 18.8653L76.2375 21.5878L74.9167 23.5574L75.9378 26.0189L78.2628 26.4774V30.3275L75.9378 30.7861L74.9167 33.2475L76.2375 35.2171L73.515 37.9396L71.5454 36.6188L69.0839 37.6399L68.6254 39.9649H64.7753L64.3168 37.6399L61.8553 36.6188L59.8858 37.9396L57.1633 35.2171L58.484 33.2475L57.4629 30.7861L55.1379 30.3275V26.4774L57.4629 26.0189L58.484 23.5574L57.1633 21.5878L59.8858 18.8653L61.8553 20.1861L64.3168 19.165L64.7753 16.84H68.6254L69.0839 19.165Z" fill="#A3A3CC"/>
<path fill-rule="evenodd" clip-rule="evenodd" d="M69.084 19.1651L70.0049 19.5471L70.0205 19.5535L71.5455 20.1862L71.5466 20.1854L72.0696 20.4018L73.8546 19.2047L76.2375 21.5879L74.9168 23.5574L75.9379 26.019L78.263 26.4774V30.3276L75.9379 30.7862L74.9168 33.2476L76.2375 35.2171L73.8546 37.6002L72.0696 36.4032L71.5468 36.6196L71.5455 36.6188L69.084 37.6399L68.6255 39.9649H65.3772L64.8971 37.5299L62.1785 36.4022L61.8554 36.6188L60.3921 37.6002L58.009 35.2171L59.3297 33.2476L58.1021 30.2794L55.9836 29.8618V26.9432L58.1021 26.5257L59.3297 23.5574L58.009 21.5879L60.3921 19.2049L62.1785 20.4029L64.8971 19.2752L65.3772 16.8399H68.6255L69.084 19.1651Z" fill="#BCBEE2"/>
<path d="M67.7046 34.3378C70.9704 34.1917 73.4994 31.426 73.3534 28.1602C73.2074 24.8945 70.4416 22.3654 67.1759 22.5114C63.9101 22.6575 61.3811 25.4232 61.5271 28.689C61.6731 31.9547 64.4389 34.4838 67.7046 34.3378Z" fill="#A3A3CC"/>
<path d="M72.1938 30.6705C73.4459 27.6507 72.0128 24.1877 68.993 22.9356C65.9732 21.6835 62.5101 23.1165 61.2581 26.1363C60.006 29.1561 61.439 32.6192 64.4588 33.8713C67.4786 35.1234 70.9417 33.6903 72.1938 30.6705Z" fill="white"/>
<path fill-rule="evenodd" clip-rule="evenodd" d="M9.11157 42.8535H14.4974V45.356C14.4974 46.1017 13.887 46.7122 13.1413 46.7122H10.4678C9.72204 46.7122 9.11157 46.1019 9.11157 45.356V42.8535Z" fill="#5D689E"/>
<path fill-rule="evenodd" clip-rule="evenodd" d="M10.7366 42.8535H14.4974V45.356C14.4974 46.1017 13.887 46.7122 13.1413 46.7122H12.0928C11.347 46.7122 10.7366 46.1019 10.7366 45.356V42.8535Z" fill="#7986BF"/>
<path fill-rule="evenodd" clip-rule="evenodd" d="M16.8388 42.5988C16.8388 43.5734 16.0413 44.3708 15.0668 44.3708H8.54181C7.56712 44.3708 6.76978 43.5733 6.76978 42.5988V41.6584H16.8388V42.5988Z" fill="#7986BF"/>
<path fill-rule="evenodd" clip-rule="evenodd" d="M16.8391 42.5988C16.8391 43.5727 16.043 44.3695 15.0694 44.3708H10.8853C9.91078 44.3708 9.11328 43.5733 9.11328 42.5988V41.6584H16.8392L16.8391 42.5988Z" fill="#909CD1"/>
</g>
<defs>
<clipPath id="clip0_290_2653">
<rect width="80" height="80" fill="white"/>
</clipPath>
</defs>
</svg>
