<svg width="24" height="24" viewBox="0 0 24 24" fill="none" xmlns="http://www.w3.org/2000/svg">
<path d="M12.2041 2.47754C12.339 2.49633 12.471 2.53303 12.5957 2.58789L12.7773 2.68359L12.9434 2.80371C13.0483 2.89079 13.1415 2.99187 13.2188 3.10449L13.3232 3.28125V3.28223L15.4023 7.47266H15.4014C15.4661 7.60289 15.5627 7.71562 15.6816 7.80176C15.8008 7.88797 15.9394 7.94441 16.0859 7.96582H16.085L20.7314 8.64258H20.7324C20.9361 8.67195 21.1311 8.74414 21.3047 8.85254L21.4717 8.97363L21.6191 9.11621C21.7105 9.21755 21.7875 9.33149 21.8477 9.4541L21.9258 9.64551L21.9756 9.84473C22.0115 10.047 22.0048 10.2561 21.9551 10.457C21.9053 10.6579 21.8134 10.845 21.6875 11.0068L21.5508 11.1602L18.1885 14.418C18.0833 14.52 18.0052 14.6462 17.96 14.7842C17.9149 14.9221 17.9044 15.0691 17.9287 15.2119L18.7207 19.8096C18.7691 20.0825 18.7399 20.3643 18.6357 20.6211C18.5315 20.8779 18.3567 21.0998 18.1328 21.2617C17.9089 21.4235 17.6442 21.519 17.3691 21.5381C17.0939 21.5571 16.8183 21.4994 16.5742 21.3701V21.3691L12.4238 19.1982C12.2934 19.1301 12.1478 19.0938 12 19.0938C11.889 19.0938 11.7788 19.1145 11.6758 19.1533L11.5752 19.1982L7.42285 21.3701C7.17897 21.4986 6.90453 21.5575 6.62988 21.5381C6.35515 21.5186 6.09071 21.4225 5.86719 21.2607C5.64376 21.099 5.46935 20.8774 5.36523 20.6211C5.28722 20.4289 5.25081 20.2225 5.25781 20.0166L5.2793 19.8115L6.07129 15.2129L6.08398 15.1045C6.08914 14.9966 6.0748 14.8876 6.04102 14.7842C6.00714 14.6807 5.95424 14.5838 5.88574 14.499L5.81152 14.418L2.45312 11.1631L2.45215 11.1641C2.25314 10.9726 2.11128 10.7285 2.04395 10.46C1.9767 10.1914 1.9865 9.90872 2.07227 9.64551L2.15039 9.4541C2.24099 9.26926 2.36959 9.1045 2.52832 8.97168L2.69531 8.85059C2.86981 8.74196 3.06581 8.67045 3.27051 8.6416L7.91406 7.96582C8.0606 7.94459 8.20015 7.88886 8.31934 7.80273C8.4383 7.71668 8.53391 7.60285 8.59863 7.47266L10.6768 3.28223V3.28125C10.7994 3.03482 10.9891 2.8279 11.2227 2.68359C11.4563 2.53929 11.7258 2.46289 12 2.46289L12.2041 2.47754ZM12 17.0938C12.4701 17.0938 12.9339 17.2081 13.3506 17.4258L16.5703 19.1104L15.957 15.5518V15.5508C15.8775 15.087 15.9124 14.6104 16.0586 14.1631C16.205 13.7156 16.459 13.3101 16.7969 12.9824L19.3906 10.4678L15.7969 9.94531C15.3319 9.87737 14.8896 9.69838 14.5088 9.42285C14.1756 9.18163 13.8977 8.87218 13.6934 8.5166L13.6104 8.36133L12 5.11523V17.0938ZM20.5205 10.1035H20.5215V10.1006H20.5205V10.1035Z" fill="#FF9500"/>
</svg>
