<svg width="80" height="80" viewBox="0 0 80 80" fill="none" xmlns="http://www.w3.org/2000/svg">
<path d="M37.5007 46.25H42.5007V51.25H37.5007V46.25Z" fill="#FA9F0C"/>
<path d="M41.2507 61.25C41.25 63.0533 41.8351 64.808 42.9179 66.25H9.16786C8.08603 64.8075 7.50122 63.0531 7.50122 61.25C7.50122 59.4469 8.08603 57.6925 9.16786 56.25H42.9179C41.8362 57.6926 41.2512 59.4469 41.2507 61.25Z" fill="#92563A"/>
<path d="M67.5008 56.25H42.9174C41.8355 57.6925 41.2507 59.4469 41.2507 61.25C41.2507 63.0531 41.8355 64.8075 42.9174 66.25H67.5008C66.419 64.8075 65.8342 63.0531 65.8342 61.25C65.8342 59.4469 66.419 57.6925 67.5008 56.25Z" fill="#EAD7BC"/>
<path d="M65.0007 60H42.5007C41.8104 60 41.2507 60.5596 41.2507 61.25C41.2507 61.9404 41.8104 62.5 42.5007 62.5H65.0007C65.6911 62.5 66.2507 61.9404 66.2507 61.25C66.2507 60.5596 65.6911 60 65.0007 60Z" fill="#D4C2AA"/>
<path d="M34.2449 56.3081C34.101 56.2 33.9355 56.1241 33.7596 56.0859C33.5837 56.0476 33.4017 56.0477 33.2259 56.0863C33.0501 56.1249 32.8847 56.201 32.741 56.3094C32.5973 56.4178 32.4787 56.5559 32.3933 56.7144C31.6511 58.1108 31.2629 59.6681 31.2629 61.2495C31.2629 62.831 31.6511 64.3882 32.3933 65.7847C32.4787 65.9431 32.5973 66.0813 32.741 66.1897C32.8847 66.2981 33.0501 66.3742 33.2259 66.4127C33.4017 66.4513 33.5837 66.4515 33.7596 66.4132C33.9355 66.3749 34.101 66.2991 34.2449 66.1909C34.4841 66.0102 34.6506 65.7498 34.7142 65.4568C34.7778 65.1639 34.7344 64.8579 34.5918 64.5942C34.0455 63.5638 33.7598 62.4153 33.7598 61.249C33.7598 60.0828 34.0455 58.9343 34.5918 57.9039C34.7341 57.6403 34.7774 57.3345 34.7138 57.0418C34.6502 56.749 34.4838 56.4888 34.2449 56.3081ZM14.8933 56.7148C14.1511 58.1113 13.7629 59.6685 13.7629 61.25C13.7629 62.8314 14.1511 64.3887 14.8933 65.7851C14.9787 65.9436 15.0973 66.0817 15.241 66.1901C15.3847 66.2985 15.5501 66.3746 15.7259 66.4132C15.9017 66.4518 16.0837 66.4519 16.2596 66.4136C16.4355 66.3754 16.601 66.2995 16.7449 66.1914C16.9841 66.0107 17.1506 65.7502 17.2142 65.4573C17.2778 65.1644 17.2344 64.8583 17.0918 64.5947C16.5455 63.5643 16.2598 62.4158 16.2598 61.2495C16.2598 60.0833 16.5455 58.9348 17.0918 57.9044C17.2344 57.6407 17.2778 57.3347 17.2142 57.0417C17.1506 56.7488 16.9841 56.4884 16.7449 56.3076C16.601 56.1995 16.4354 56.1238 16.2595 56.0856C16.0835 56.0473 15.9015 56.0476 15.7256 56.0862C15.5498 56.1249 15.3844 56.2011 15.2408 56.3096C15.0971 56.4181 14.9786 56.5563 14.8933 56.7148Z" fill="#ED8C0C"/>
<path d="M32.5007 51.25H47.5007C48.8268 51.25 50.0986 51.7768 51.0363 52.7145C51.9739 53.6521 52.5007 54.9239 52.5007 56.25H27.5007C27.5007 54.9239 28.0275 53.6521 28.9652 52.7145C29.9029 51.7768 31.1746 51.25 32.5007 51.25Z" fill="#FFB531"/>
<path d="M47.5007 51.25H41.2507C42.5768 51.25 43.8486 51.7768 44.7863 52.7145C45.7239 53.6521 46.2507 54.9239 46.2507 56.25H52.5007C52.5007 54.9239 51.9739 53.6521 51.0363 52.7145C50.0986 51.7768 48.8268 51.25 47.5007 51.25Z" fill="#FFA912"/>
<path d="M17.8635 3.38859L19.631 1.62109L59.6249 41.615L57.8574 43.3825L17.8635 3.38859Z" fill="#FA9F0C"/>
<path d="M38.7508 47.4883C35.4679 47.4941 32.2162 46.8512 29.1825 45.5966C26.1488 44.3421 23.3929 42.5005 21.073 40.1777C11.3256 30.4302 11.3256 14.5699 21.073 4.82237C22.0637 3.83168 23.1351 2.92512 24.2761 2.11206L25.7258 4.14894C24.6981 4.8812 23.7331 5.69777 22.8409 6.59019C14.0683 15.3628 14.0683 29.6371 22.8409 38.41C31.6136 47.183 45.8878 47.1825 54.6606 38.41C55.553 37.5178 56.3695 36.5529 57.1019 35.5253L59.1386 36.9749C58.3257 38.1159 57.4192 39.1873 56.4286 40.178C54.1087 42.5007 51.3527 44.3423 48.319 45.5968C45.2853 46.8513 42.0336 47.4941 38.7508 47.4883Z" fill="#FFB531"/>
<path d="M57.5007 22.5C57.5011 23.7594 57.3754 25.0156 57.1257 26.25C56.4771 29.4367 55.0078 32.399 52.8632 34.8437C52.3134 35.4717 51.7225 36.0626 51.0945 36.6125C48.3844 38.9868 45.0474 40.5296 41.4831 41.0562C37.9188 41.5829 34.2782 41.071 30.9973 39.5819C27.7164 38.0928 24.9342 35.6896 22.9839 32.66C21.0336 29.6305 19.9979 26.103 20.0007 22.5C20.0004 21.2406 20.126 19.9844 20.3757 18.75C21.0244 15.5632 22.4937 12.601 24.6382 10.1562C26.4596 8.07492 28.7174 6.42059 31.2507 5.31092C34.1045 4.06575 37.2234 3.55079 40.326 3.81253C43.4285 4.07428 46.4171 5.10448 49.0219 6.81017C51.6267 8.51585 53.7658 10.8433 55.246 13.5825C56.7263 16.3217 57.5012 19.3864 57.5007 22.5Z" fill="#348FD9"/>
<path d="M57.5006 22.5C57.501 23.7594 57.3753 25.0156 57.1256 26.25C56.477 29.4367 55.0077 32.399 52.8631 34.8438C52.3133 35.4718 51.7224 36.0626 51.0944 36.6125C48.7003 38.7065 45.8129 40.1572 42.7038 40.8281C39.5947 41.499 36.366 41.368 33.3215 40.4474C30.2769 39.5269 27.5166 37.8471 25.3 35.566C23.0834 33.2849 21.4835 30.4775 20.6506 27.4078C23.5794 29.1784 26.9377 30.1117 30.36 30.1063C30.9475 30.1062 31.5277 30.0792 32.1006 30.025C34.8941 29.7718 37.5945 28.8916 40.0006 27.45C43.5015 25.3563 46.2276 22.1821 47.7685 18.4051C49.3093 14.6282 49.5816 10.4529 48.5444 6.50781C51.2818 8.18333 53.543 10.5339 55.1113 13.3341C56.6795 16.1344 57.5023 19.2905 57.5006 22.5Z" fill="#3086CD"/>
<path d="M43.7507 30L38.7507 36.25H33.7507V32.5L32.1007 30.025L31.2507 28.75V23.75H40.0007V30H43.7507ZM38.7507 16.25H33.7507L31.2507 20V23.75H26.2507L25.0007 18.75H20.3757C21.0244 15.5633 22.4937 12.601 24.6382 10.1563C26.4596 8.07495 28.7173 6.42061 31.2507 5.31095V11.25H36.2507L38.7507 16.25ZM57.5007 22.5C57.5011 23.7594 57.3754 25.0156 57.1257 26.25H52.5007L48.7507 23.75V18.75L48.0742 17.6219L45.0007 12.5V4.8172C48.6562 6.11156 51.8208 8.50674 54.0592 11.6733C56.2976 14.8398 57.4999 18.6222 57.5007 22.5Z" fill="#7EB457"/>
<path d="M40.0006 30H43.7506L38.7506 36.25H33.7506V32.5L32.1006 30.025C34.8941 29.7718 37.5944 28.8916 40.0006 27.45V30ZM57.5006 22.5C57.5009 23.7594 57.3753 25.0156 57.1256 26.25H52.5006L48.7506 23.75V18.75L48.074 17.6219C49.3433 14.0485 49.5072 10.1757 48.5443 6.50781C51.2818 8.18333 53.543 10.5339 55.1112 13.3341C56.6795 16.1344 57.5022 19.2905 57.5006 22.5Z" fill="#79AD54"/>
<path d="M46.6935 71.2601C46.6929 73.0634 47.278 74.8181 48.3607 76.2601H14.6102C13.5284 74.8177 12.9436 73.0632 12.9436 71.2601C12.9436 69.4571 13.5284 67.7026 14.6102 66.2601H48.3602C47.2786 67.7027 46.6936 69.4571 46.6931 71.2601H46.6935Z" fill="#92563A"/>
<path d="M48.3602 66.2601C47.7935 67.0144 47.3597 67.8599 47.0774 68.7601H13.3274C13.6097 67.8599 14.0435 67.0144 14.6102 66.2601H48.3602Z" fill="#875036"/>
<path d="M72.9435 66.2601H48.3602C47.2784 67.7026 46.6936 69.4571 46.6936 71.2601C46.6936 73.0632 47.2784 74.8177 48.3602 76.2601H72.9435C71.8617 74.8177 71.2769 73.0632 71.2769 71.2601C71.2769 69.4571 71.8617 67.7026 72.9435 66.2601Z" fill="#DFCDB3"/>
<path d="M70.4436 70.0101H47.9436C47.2532 70.0101 46.6936 70.5698 46.6936 71.2601C46.6936 71.9505 47.2532 72.5101 47.9436 72.5101H70.4436C71.134 72.5101 71.6936 71.9505 71.6936 71.2601C71.6936 70.5698 71.134 70.0101 70.4436 70.0101Z" fill="#CEBDA5"/>
<path d="M39.6884 66.3183C39.5445 66.2102 39.379 66.1343 39.2031 66.0961C39.0272 66.0578 38.8452 66.0579 38.6694 66.0965C38.4936 66.1351 38.3282 66.2112 38.1845 66.3196C38.0408 66.428 37.9222 66.5661 37.8368 66.7246C37.0946 68.121 36.7064 69.6783 36.7064 71.2597C36.7064 72.8412 37.0946 74.3984 37.8368 75.7949C37.9222 75.9533 38.0408 76.0915 38.1845 76.1999C38.3282 76.3083 38.4936 76.3843 38.6694 76.4229C38.8452 76.4615 39.0272 76.4616 39.2031 76.4234C39.379 76.3851 39.5445 76.3093 39.6884 76.2011C39.9275 76.0204 40.094 75.76 40.1577 75.4671C40.2213 75.1742 40.1779 74.8682 40.0353 74.6046C39.489 73.5741 39.2033 72.4256 39.2033 71.2593C39.2033 70.093 39.489 68.9445 40.0353 67.9141C40.1776 67.6505 40.2209 67.3447 40.1573 67.052C40.0937 66.7592 39.9273 66.499 39.6884 66.3183ZM20.3362 66.725C19.594 68.1215 19.2058 69.6787 19.2058 71.2602C19.2058 72.8416 19.594 74.3989 20.3362 75.7953C20.4216 75.9538 20.5402 76.0919 20.6838 76.2003C20.8275 76.3087 20.9929 76.3848 21.1687 76.4234C21.3446 76.462 21.5266 76.4621 21.7025 76.4238C21.8784 76.3856 22.0439 76.3097 22.1878 76.2016C22.4269 76.0209 22.5934 75.7605 22.6571 75.4676C22.7207 75.1747 22.6773 74.8687 22.5346 74.605C21.9883 73.5746 21.7027 72.4261 21.7027 71.2598C21.7027 70.0935 21.9883 68.945 22.5346 67.9146C22.6772 67.651 22.7207 67.3451 22.6572 67.0523C22.5936 66.7595 22.4273 66.4991 22.1884 66.3183C22.0445 66.2101 21.8789 66.1342 21.7029 66.0959C21.5269 66.0576 21.3448 66.0577 21.1689 66.0963C20.993 66.135 20.8275 66.2111 20.6838 66.3197C20.5401 66.4282 20.4215 66.5664 20.3362 66.725Z" fill="#ED8C0C"/>
</svg>
