<svg width="80" height="80" viewBox="0 0 80 80" fill="none" xmlns="http://www.w3.org/2000/svg">
<g clip-path="url(#clip0_290_2434)">
<path d="M53.7607 66.6328C53.7607 60.0483 59.0869 54.6914 65.6337 54.6914C67.4658 54.6902 69.2728 55.1177 70.9102 55.9397C73.2232 51.2858 74.534 46.0446 74.5543 40.4961C74.6249 21.1489 59.0004 5.40768 39.6557 5.33721C20.3115 5.26659 4.57257 20.8936 4.50195 40.2408C4.43132 59.5875 20.056 75.3291 39.4005 75.3997C44.979 75.42 50.2563 74.1328 54.9457 71.8296C54.1871 70.2575 53.7607 68.4944 53.7607 66.6328Z" fill="#FB2B3A"/>
<path d="M8.4671 40.2408C8.53523 21.5978 23.1523 6.41159 41.524 5.39378C40.9019 5.35857 40.2789 5.33971 39.6559 5.33721C20.3115 5.26659 4.57257 20.8936 4.50195 40.2408C4.43132 59.5875 20.056 75.3291 39.4005 75.3997C40.1048 75.4022 40.8035 75.3816 41.4976 75.3432C23.0252 74.3042 8.39882 58.9608 8.4671 40.2408Z" fill="#E41F2D"/>
<path d="M62.9416 55.0047C65.5914 50.7833 67.1349 45.8014 67.1544 40.4689C67.1814 33.0887 64.3331 26.1397 59.1342 20.902C53.9355 15.6645 47.0081 12.765 39.6288 12.7383L39.5255 12.7381C24.3491 12.7381 11.9574 25.0878 11.902 40.2678C11.875 47.6481 14.7235 54.5968 19.9222 59.8348C25.121 65.0725 32.0481 67.9718 39.4274 67.9986L39.531 67.9989C44.8691 67.9989 49.8614 66.4693 54.0949 63.8278C55.1445 59.4606 58.5858 56.0248 62.9416 55.0047Z" fill="white"/>
<path d="M23.8874 59.8345C18.6885 54.5966 15.84 47.6478 15.867 40.2675C15.92 25.7522 27.253 13.8263 41.5142 12.8095C40.8867 12.7648 40.2579 12.741 39.6288 12.7381L39.5255 12.738C24.3491 12.738 11.9574 25.0877 11.902 40.2677C11.875 47.648 14.7235 54.5967 19.9222 59.8347C25.121 65.0723 32.0481 67.9717 39.4274 67.9984L39.5309 67.9988C40.1956 67.9988 40.8545 67.9736 41.5078 67.9272C34.8399 67.4564 28.6408 64.6239 23.8874 59.8345Z" fill="#EFE2DD"/>
<path d="M39.4452 60.5975C34.0517 60.5778 28.9802 58.4551 25.1739 54.6203C21.3675 50.7856 19.2824 45.6979 19.3019 40.2947C19.3424 29.1806 28.4147 20.139 39.5255 20.139L39.6114 20.1392C45.0047 20.1587 50.0764 22.2815 53.8825 26.1162C57.6891 29.9509 59.7745 35.0387 59.7545 40.4419C59.7141 51.5526 50.6469 60.5923 39.5411 60.5979L39.4452 60.5975Z" fill="#FB2B3A"/>
<path d="M29.932 54.6203C26.1256 50.7856 24.0402 45.6979 24.0601 40.2947C24.0976 29.9812 31.9129 21.454 41.9171 20.2787C41.1517 20.189 40.3818 20.1424 39.6112 20.1392L39.5252 20.139C28.4145 20.139 19.3421 29.1808 19.3017 40.2947C19.282 45.6981 21.3671 50.7856 25.1737 54.6203C28.9801 58.4551 34.0517 60.5778 39.4449 60.5975L39.5407 60.5978C40.3284 60.597 41.1153 60.5504 41.8976 60.4581C37.3766 59.9298 33.1906 57.9031 29.932 54.6203Z" fill="#E41F2D"/>
<path d="M39.4639 53.1965C36.0519 53.1839 32.8394 51.8381 30.4252 49.4061C28.0118 46.9745 26.6891 43.7483 26.7018 40.3219C26.7275 33.2739 32.4799 27.54 39.5252 27.54L39.5899 27.5401C43.0043 27.5523 46.2172 28.8984 48.6308 31.3303C51.0444 33.7622 52.3668 36.9883 52.3544 40.4148C52.3291 47.4559 46.5838 53.1876 39.5469 53.1969L39.4639 53.1965Z" fill="white"/>
<path d="M34.3906 49.406C31.977 46.9745 30.6545 43.7482 30.6672 40.3218C30.6904 33.944 35.4036 28.6428 41.5203 27.6923C40.8816 27.5934 40.2364 27.5425 39.5901 27.5403L39.5254 27.5401C32.4801 27.5401 26.7278 33.274 26.702 40.322C26.6892 43.7484 28.0118 46.9746 30.4254 49.4062C32.8397 51.8382 36.0522 53.1842 39.4642 53.1967L39.5472 53.197C40.2115 53.196 40.8643 53.1438 41.502 53.0446C38.8203 52.6298 36.3439 51.3738 34.3906 49.406Z" fill="#EFE2DD"/>
<path d="M39.485 45.7955C38.0318 45.7903 36.7128 45.2358 35.6769 44.192C34.641 43.1484 34.0963 41.8194 34.1016 40.3489C34.1125 37.3705 36.5402 34.9464 39.5149 34.9409L39.5629 34.9411C41.0235 34.9464 42.3433 35.5009 43.3789 36.5445C44.4149 37.5883 44.9599 38.917 44.9544 40.3876C44.9436 43.3619 42.52 45.785 39.5497 45.7958L39.485 45.7955Z" fill="#FB2B3A"/>
<path d="M38.8491 44.192C37.8133 43.1484 37.2686 41.8194 37.2738 40.3489C37.2827 37.9117 38.91 35.8467 41.131 35.1733C40.6327 35.0217 40.1077 34.9431 39.5629 34.9411L39.5149 34.9409C36.54 34.9464 34.1125 37.3705 34.1016 40.3489C34.0963 41.8194 34.641 43.1484 35.6769 44.192C36.7128 45.2358 38.0318 45.7905 39.485 45.7955L39.5499 45.7958C40.0736 45.7938 40.5943 45.7156 41.0955 45.5634C40.2597 45.3086 39.4988 44.8465 38.8491 44.192Z" fill="#E41F2D"/>
<path d="M39.5281 15.76C39.2173 15.76 38.9193 15.6365 38.6995 15.4168C38.4797 15.197 38.3563 14.8989 38.3563 14.5881V2.00641C38.3563 1.69561 38.4797 1.39754 38.6995 1.17777C38.9193 0.957999 39.2173 0.834534 39.5281 0.834534C39.8389 0.834534 40.137 0.957999 40.3568 1.17777C40.5765 1.39754 40.7 1.69561 40.7 2.00641V14.5881C40.7 14.8989 40.5765 15.197 40.3568 15.4168C40.137 15.6365 39.8389 15.76 39.5281 15.76ZM39.5281 79.902C39.2173 79.902 38.9193 79.7786 38.6995 79.5588C38.4797 79.339 38.3563 79.041 38.3563 78.7302V66.1484C38.3563 65.8376 38.4797 65.5396 38.6995 65.3198C38.9193 65.1 39.2173 64.9766 39.5281 64.9766C39.8389 64.9766 40.137 65.1 40.3568 65.3198C40.5765 65.5396 40.7 65.8376 40.7 66.1484V78.7302C40.7 79.041 40.5765 79.339 40.3568 79.5588C40.137 79.7786 39.8389 79.902 39.5281 79.902ZM13.7519 41.5403H1.17188C0.861074 41.5403 0.563003 41.4169 0.343234 41.1971C0.123465 40.9773 0 40.6792 0 40.3684C0 40.0576 0.123465 39.7596 0.343234 39.5398C0.563003 39.32 0.861074 39.1966 1.17188 39.1966H13.7519C14.0627 39.1966 14.3607 39.32 14.5805 39.5398C14.8003 39.7596 14.9237 40.0576 14.9237 40.3684C14.9237 40.6792 14.8003 40.9773 14.5805 41.1971C14.3607 41.4169 14.0627 41.5403 13.7519 41.5403ZM77.8847 41.5403H65.3045C64.6572 41.5403 64.1327 41.0156 64.1327 40.3684C64.1327 39.7213 64.6572 39.1966 65.3045 39.1966H77.8847C78.1955 39.1966 78.4936 39.32 78.7133 39.5398C78.9331 39.7596 79.0566 40.0576 79.0566 40.3684C79.0566 40.6792 78.9331 40.9773 78.7133 41.1971C78.4936 41.4169 78.1955 41.5403 77.8847 41.5403Z" fill="#5B5555"/>
<path d="M61.3121 17.2602L72.3127 6.31422L70.6334 0.41875C70.5338 0.0692192 70.241 -0.00671831 69.983 0.250313L60.0016 10.182C59.7432 10.4391 59.609 10.9364 59.7043 11.2872L61.3121 17.2602ZM79.6776 9.41813L73.7529 7.74688L62.7523 18.693L68.7551 20.2933C69.1076 20.3873 69.6071 20.2541 69.8655 19.997L79.8468 10.0653C80.1052 9.80813 80.029 9.51703 79.6776 9.41813Z" fill="#62DBFB"/>
<path d="M61.3121 17.2602L63.8383 14.7466L63.116 12.0633C63.0149 11.6903 63.1576 11.1617 63.4321 10.8884L71.3668 2.99344L70.6334 0.41875C70.5338 0.0692192 70.241 -0.00671831 69.983 0.250313L60.0016 10.182C59.7432 10.4391 59.609 10.9364 59.7043 11.2872L61.3121 17.2602Z" fill="#01D0FB"/>
<path d="M66.1045 12.4914L68.0145 10.5911L66.4084 4.62575C66.3556 4.42912 66.2521 4.24977 66.1083 4.10559L64.3203 5.88481L66.0622 12.3545C66.0745 12.4006 66.0888 12.4462 66.1045 12.4914ZM69.465 12.0132L67.5466 13.9223C67.5883 13.9365 67.6303 13.9498 67.6728 13.9611L74.1866 15.6975L75.977 13.9159C75.8312 13.7678 75.6483 13.6615 75.4475 13.6079L69.465 12.0132Z" fill="#08A9F1"/>
<path d="M39.528 41.5403C39.3736 41.5405 39.2207 41.5101 39.0781 41.4508C38.9355 41.3915 38.8061 41.3046 38.6974 41.195C38.4782 40.9746 38.3554 40.6763 38.3562 40.3655C38.357 40.0547 38.4811 39.757 38.7014 39.5378L74.795 3.6237C74.9041 3.51512 75.0335 3.4291 75.1758 3.37054C75.3181 3.31198 75.4706 3.28204 75.6245 3.28241C75.7783 3.28279 75.9307 3.31348 76.0727 3.37274C76.2147 3.432 76.3437 3.51865 76.4522 3.62776C76.6714 3.84807 76.7941 4.14642 76.7934 4.4572C76.7926 4.76798 76.6684 5.06572 76.4481 5.28495L40.3545 41.199C40.2459 41.3074 40.117 41.3933 39.9752 41.4519C39.8334 41.5104 39.6814 41.5404 39.528 41.5403Z" fill="#CDBFBA"/>
<path d="M77.663 66.6328C77.663 73.3141 72.2772 78.7303 65.634 78.7303C58.9905 78.7303 53.6047 73.3141 53.6047 66.6328C53.6047 59.9516 58.9907 54.5352 65.634 54.5352C72.2772 54.535 77.663 59.9514 77.663 66.6328Z" fill="#97D729"/>
<path d="M58.7174 66.6328C58.7174 60.834 62.7754 55.9906 68.1904 54.8115C67.3506 54.6281 66.4935 54.5354 65.634 54.535C58.9905 54.535 53.6047 59.9514 53.6047 66.6326C53.6047 73.3139 58.9907 78.7301 65.634 78.7301C66.5116 78.7301 67.3661 78.6331 68.1904 78.4537C62.7754 77.2748 58.7174 72.4314 58.7174 66.6328Z" fill="#8BC727"/>
<path d="M64.1912 71.012C64.0367 71.012 63.8838 70.9814 63.7412 70.9221C63.5986 70.8628 63.4691 70.7759 63.3602 70.6664L59.8672 67.1534C59.7569 67.0447 59.6692 66.9152 59.6092 66.7723C59.5492 66.6295 59.5182 66.4762 59.5178 66.3213C59.5175 66.1664 59.5478 66.013 59.6071 65.8699C59.6665 65.7268 59.7536 65.5969 59.8634 65.4876C59.9732 65.3784 60.1037 65.292 60.2471 65.2335C60.3905 65.175 60.5441 65.1455 60.699 65.1468C60.8539 65.148 61.0071 65.1799 61.1495 65.2407C61.292 65.3015 61.421 65.3899 61.5291 65.5009L64.1912 68.1781L69.7382 62.599C69.9576 62.3799 70.2549 62.2566 70.5651 62.2563C70.8752 62.2559 71.1728 62.3785 71.3927 62.5972C71.6126 62.8159 71.7368 63.1128 71.7382 63.4229C71.7396 63.733 71.618 64.031 71.4001 64.2517L65.0221 70.6665C64.9132 70.776 64.7837 70.8629 64.6411 70.9222C64.4985 70.9815 64.3456 71.012 64.1912 71.012Z" fill="#017B4E"/>
</g>
<defs>
<clipPath id="clip0_290_2434">
<rect width="80" height="80" fill="white"/>
</clipPath>
</defs>
</svg>
