<svg width="24" height="24" viewBox="0 0 24 24" fill="none" xmlns="http://www.w3.org/2000/svg">
<path d="M12.2043 2.47559C12.3391 2.49438 12.4711 2.53108 12.5959 2.58594L12.7775 2.68164L12.9435 2.80176C13.0485 2.88884 13.1417 2.98992 13.2189 3.10254L13.3234 3.2793L15.4025 7.4707C15.4672 7.60093 15.5629 7.71366 15.6818 7.7998C15.8009 7.88602 15.9396 7.94246 16.0861 7.96387L20.7316 8.64062C20.9353 8.67 21.1313 8.74219 21.3049 8.85059L21.4718 8.97168L21.6193 9.11426C21.7106 9.2156 21.7876 9.32953 21.8478 9.45215L21.9259 9.64355L21.9758 9.84277C22.0117 10.045 22.005 10.2542 21.9552 10.4551C21.9054 10.6559 21.8135 10.843 21.6877 11.0049L21.5509 11.1582L18.1886 14.416C18.0835 14.5181 18.0053 14.6442 17.9601 14.7822C17.915 14.9202 17.9045 15.0671 17.9289 15.21L18.7209 19.8076C18.7693 20.0806 18.74 20.3624 18.6359 20.6191C18.5317 20.8759 18.3569 21.0979 18.133 21.2598C17.9091 21.4216 17.6444 21.517 17.3693 21.5361C17.0941 21.5552 16.8184 21.4975 16.5744 21.3682L12.424 19.1963C12.2935 19.1282 12.148 19.0919 12.0002 19.0918C11.8891 19.0918 11.779 19.1125 11.6759 19.1514L11.5754 19.1963L7.42302 21.3682C7.17913 21.4966 6.90469 21.5555 6.63005 21.5361C6.35532 21.5167 6.09087 21.4206 5.86735 21.2588C5.64392 21.097 5.46952 20.8754 5.3654 20.6191C5.28739 20.4269 5.25097 20.2205 5.25798 20.0146L5.27946 19.8096L6.07145 15.2109L6.08415 15.1025C6.08931 14.9946 6.07497 14.8856 6.04118 14.7822C6.0073 14.6788 5.9544 14.5819 5.88591 14.4971L5.81169 14.416L2.45329 11.1611L2.45231 11.1621C2.2533 10.9706 2.11144 10.7266 2.04411 10.458C1.97686 10.1894 1.98666 9.90676 2.07243 9.64355L2.15056 9.45215C2.24115 9.26731 2.36975 9.10255 2.52849 8.96973L2.69548 8.84863C2.86997 8.74001 3.06598 8.66849 3.27067 8.63965L7.91423 7.96387C8.06076 7.94264 8.20031 7.88691 8.3195 7.80078C8.43847 7.71473 8.53407 7.6009 8.5988 7.4707L10.6769 3.28027C10.7996 3.03385 10.9893 2.82595 11.2228 2.68164C11.4565 2.53734 11.726 2.46094 12.0002 2.46094L12.2043 2.47559Z" fill="#FF9500"/>
</svg>
