<svg width="141" height="15" viewBox="0 0 141 15" fill="none" xmlns="http://www.w3.org/2000/svg">
<path d="M140.506 8.07113C140.897 7.68061 140.897 7.04744 140.506 6.65692L134.142 0.292958C133.752 -0.0975667 133.119 -0.0975668 132.728 0.292957C132.338 0.683482 132.338 1.31665 132.728 1.70717L138.385 7.36403L132.728 13.0209C132.338 13.4114 132.338 14.0446 132.728 14.4351C133.119 14.8256 133.752 14.8256 134.142 14.4351L140.506 8.07113ZM0 7.36401L-8.74228e-08 8.36401L4.36872 8.36401L4.36872 7.36401L4.36872 6.36401L8.74228e-08 6.36401L0 7.36401ZM13.1062 7.36401L13.1062 8.36401L21.8436 8.36402L21.8436 7.36402L21.8436 6.36402L13.1062 6.36401L13.1062 7.36401ZM30.5811 7.36402L30.5811 8.36402L39.3185 8.36402L39.3185 7.36402L39.3185 6.36402L30.5811 6.36402L30.5811 7.36402ZM48.056 7.36402L48.056 8.36402L56.7934 8.36402L56.7934 7.36402L56.7934 6.36402L48.056 6.36402L48.056 7.36402ZM65.5309 7.36402L65.5309 8.36402L74.2683 8.36402L74.2683 7.36402L74.2683 6.36402L65.5309 6.36402L65.5309 7.36402ZM83.0058 7.36402L83.0058 8.36402L91.7432 8.36402L91.7432 7.36402L91.7432 6.36402L83.0058 6.36402L83.0058 7.36402ZM100.481 7.36402L100.481 8.36402L109.218 8.36402L109.218 7.36402L109.218 6.36402L100.481 6.36402L100.481 7.36402ZM117.956 7.36402L117.956 8.36402L126.693 8.36402L126.693 7.36402L126.693 6.36402L117.956 6.36402L117.956 7.36402ZM135.43 7.36403L135.43 8.36403L139.799 8.36403L139.799 7.36403L139.799 6.36403L135.43 6.36403L135.43 7.36403ZM140.506 8.07113C140.897 7.68061 140.897 7.04744 140.506 6.65692L134.142 0.292958C133.752 -0.0975667 133.119 -0.0975668 132.728 0.292957C132.338 0.683482 132.338 1.31665 132.728 1.70717L138.385 7.36403L132.728 13.0209C132.338 13.4114 132.338 14.0446 132.728 14.4351C133.119 14.8256 133.752 14.8256 134.142 14.4351L140.506 8.07113ZM0 7.36401L-8.74228e-08 8.36401L4.36872 8.36401L4.36872 7.36401L4.36872 6.36401L8.74228e-08 6.36401L0 7.36401ZM13.1062 7.36401L13.1062 8.36401L21.8436 8.36402L21.8436 7.36402L21.8436 6.36402L13.1062 6.36401L13.1062 7.36401ZM30.5811 7.36402L30.5811 8.36402L39.3185 8.36402L39.3185 7.36402L39.3185 6.36402L30.5811 6.36402L30.5811 7.36402ZM48.056 7.36402L48.056 8.36402L56.7934 8.36402L56.7934 7.36402L56.7934 6.36402L48.056 6.36402L48.056 7.36402ZM65.5309 7.36402L65.5309 8.36402L74.2683 8.36402L74.2683 7.36402L74.2683 6.36402L65.5309 6.36402L65.5309 7.36402ZM83.0058 7.36402L83.0058 8.36402L91.7432 8.36402L91.7432 7.36402L91.7432 6.36402L83.0058 6.36402L83.0058 7.36402ZM100.481 7.36402L100.481 8.36402L109.218 8.36402L109.218 7.36402L109.218 6.36402L100.481 6.36402L100.481 7.36402ZM117.956 7.36402L117.956 8.36402L126.693 8.36402L126.693 7.36402L126.693 6.36402L117.956 6.36402L117.956 7.36402ZM135.43 7.36403L135.43 8.36403L139.799 8.36403L139.799 7.36403L139.799 6.36403L135.43 6.36403L135.43 7.36403Z" fill="white"/>
</svg>
