<svg width="80" height="80" viewBox="0 0 80 80" fill="none" xmlns="http://www.w3.org/2000/svg">
<g clip-path="url(#clip0_290_2569)">
<path d="M17.6844 5.94293C17.7503 5.395 17.5817 4.9241 17.3077 4.89115C17.0337 4.8582 16.7582 5.27568 16.6923 5.82361C16.6264 6.37155 16.7951 6.84245 17.0691 6.8754C17.343 6.90835 17.6185 6.49087 17.6844 5.94293Z" fill="#FFD15C"/>
<path d="M10.9436 6.026C11.0095 6.57393 11.285 6.99141 11.559 6.95846C11.833 6.92551 12.0016 6.45461 11.9357 5.90668C11.8698 5.35874 11.5943 4.94126 11.3203 4.97421C11.0464 5.00716 10.8777 5.47806 10.9436 6.026Z" fill="#FFD15C"/>
<path d="M16.35 11.3832V8.88497C17.1827 7.8857 17.1827 5.55411 17.1827 5.55411V4.55483C17.1827 4.55483 17.3493 2.22325 16.5165 1.72361C15.6838 1.22397 11.6867 1.89021 11.5201 2.72288C11.3535 3.55556 11.5201 5.72071 11.5201 5.72071C11.5201 5.72071 11.5201 7.55266 12.0197 8.55193V11.2167L16.35 11.3832Z" fill="#FFD15C"/>
<path d="M11.6869 5.55416C11.6869 5.55416 12.1866 4.72148 12.02 3.88865C11.8534 3.05597 11.8534 2.88938 12.02 2.72278C12.353 2.55618 15.0178 2.72278 15.5174 2.55618C16.0171 2.38958 16.5167 2.88922 16.3501 3.22242C16.3501 3.38901 16.5167 4.22169 16.6832 4.55473C16.8496 4.88777 17.0162 5.3874 16.8498 5.7206H17.0164C17.0164 5.7206 17.516 3.55545 17.3494 2.38974C17.0164 1.05743 16.1835 0.391191 14.6846 0.0581516C13.1857 -0.274888 11.5204 0.890828 11.3538 1.8901C11.1872 2.88938 11.5204 5.55416 11.6869 5.55416Z" fill="#344A5E"/>
<path d="M48.327 74.1708L62.4834 69.1745C61.4841 68.6748 60.4849 68.0086 59.4856 67.509L40.4994 74.3373H48.327V74.1708ZM39.3335 74.1708L22.3459 68.1752C20.8469 68.6748 19.348 69.0079 17.8491 69.3411L31.5059 74.1708H39.3335Z" fill="#CED6E0"/>
<path d="M39.9996 80.0001C50.8534 80.0001 59.6521 78.1359 59.6521 75.8364C59.6521 73.5368 50.8534 71.6727 39.9996 71.6727C29.1459 71.6727 20.3472 73.5368 20.3472 75.8364C20.3472 78.1359 29.1459 80.0001 39.9996 80.0001Z" fill="#F3705A"/>
<path d="M39.9996 78.6676C47.358 78.6676 53.3232 77.4 53.3232 75.8364C53.3232 74.2727 47.358 73.0051 39.9996 73.0051C32.6412 73.0051 26.676 74.2727 26.676 75.8364C26.676 77.4 32.6412 78.6676 39.9996 78.6676Z" fill="#F05540"/>
<path d="M15.351 70.3403C23.8131 70.3403 30.6731 68.849 30.6731 67.0095C30.6731 65.1699 23.8131 63.6786 15.351 63.6786C6.88877 63.6786 0.0288086 65.1699 0.0288086 67.0095C0.0288086 68.849 6.88877 70.3403 15.351 70.3403Z" fill="#FFD15C"/>
<path d="M15.3508 69.1747C21.1456 69.1747 25.8432 68.2053 25.8432 67.0095C25.8432 65.8137 21.1456 64.8444 15.3508 64.8444C9.55599 64.8444 4.8584 65.8137 4.8584 67.0095C4.8584 68.2053 9.55599 69.1747 15.3508 69.1747Z" fill="#F7B64C"/>
<path d="M64.6486 70.3403C73.1108 70.3403 79.9707 68.849 79.9707 67.0095C79.9707 65.1699 73.1108 63.6786 64.6486 63.6786C56.1864 63.6786 49.3264 65.1699 49.3264 67.0095C49.3264 68.849 56.1864 70.3403 64.6486 70.3403Z" fill="#66C6B9"/>
<path d="M64.6484 69.1747C70.4432 69.1747 75.1408 68.2053 75.1408 67.0095C75.1408 65.8137 70.4432 64.8444 64.6484 64.8444C58.8536 64.8444 54.156 65.8137 54.156 67.0095C54.156 68.2053 58.8536 69.1747 64.6484 69.1747Z" fill="#4ABAA5"/>
<path d="M49.8259 77.3353L50.159 76.8356C50.159 76.8356 50.3256 76.336 49.9924 75.8364C49.6593 75.3367 49.3261 75.1701 48.9931 74.8371C48.6601 74.3374 47.9938 73.3382 47.8272 73.1716C47.6606 73.005 43.8301 72.6719 43.8301 72.6719C43.8301 72.6719 43.4971 73.6712 43.6635 74.3374L43.9966 75.1701C43.9966 75.1701 45.4955 75.6698 45.9951 76.336C46.4951 77.0022 48.6602 77.6683 49.8259 77.3353Z" fill="#415A6B"/>
<path d="M43.6639 74.3375C43.6639 74.3375 43.997 74.6705 44.4966 74.8371C45.1628 75.0037 45.6625 75.3367 45.6625 75.8364C45.8291 76.336 46.4951 76.8356 46.9948 76.8356C47.661 76.8356 49.6596 77.0022 49.826 76.669C49.826 76.669 49.9926 77.1687 49.6594 77.3353C49.1598 77.5019 47.4943 77.5019 46.8282 77.3353C46.1621 77.1687 45.4959 76.8356 45.4959 76.5026V76.003C45.4959 75.8364 44.8296 76.003 44.4966 75.8364C44.1635 75.6698 43.6639 75.5033 43.4973 75.3367C43.4973 75.0037 43.6639 74.3375 43.6639 74.3375Z" fill="#344A5E"/>
<path d="M31.506 77.3353L31.1729 76.8356C31.1729 76.8356 31.0063 76.336 31.1729 75.8364C31.3395 75.3367 31.8392 75.3367 32.1722 74.8371C32.5052 74.504 33.1715 73.5048 33.1715 73.3382C33.1715 73.1716 36.8355 73.0051 36.8355 73.0051C36.8355 73.0051 37.1686 73.8378 37.0021 74.6706C36.8355 75.5033 36.6691 75.3369 36.6691 75.3369C36.6691 75.3369 35.1702 75.6699 34.8371 76.3361C34.5038 77.0022 32.5052 77.6683 31.506 77.3353Z" fill="#415A6B"/>
<path d="M37.0019 74.6705C37.0019 74.6705 36.6689 75.0035 36.1692 75.1701C35.6696 75.3367 35.1699 75.6697 35.0033 76.1694C34.8367 76.669 34.3371 77.0021 33.671 77.1687C33.005 77.3353 31.3394 77.3353 31.0062 77.0021C31.0062 77.0021 30.8397 77.5017 31.1728 77.6683C31.6725 77.8349 33.338 77.8349 33.8376 77.6683C34.3373 77.5017 35.1699 77.1687 35.1699 77.0021V76.5024C35.1699 76.3358 35.6696 76.5024 36.0026 76.3358C36.3357 76.1692 36.8353 76.1692 37.0019 75.8362C37.3349 75.1701 37.0019 74.6705 37.0019 74.6705Z" fill="#344A5E"/>
<path d="M47.9938 73.3381C47.9938 73.3381 46.4949 73.0051 44.996 73.5047C43.497 73.8378 43.3305 73.1717 43.3305 73.1717C43.3305 73.1717 42.9974 72.0058 43.1639 70.5069C43.3304 69.008 43.1639 64.6779 42.9973 63.179C42.8307 61.6801 42.9973 60.6808 42.6642 59.3485C42.1646 58.0162 41.8315 56.8503 41.8315 55.851C41.8315 54.8517 40.6657 52.5201 40.4992 51.1877C40.3326 49.8554 39.0003 44.0262 39.0003 44.0262C39.0003 44.0262 38.5007 47.1906 38.1676 48.8559C37.8346 50.3548 37.668 51.6872 37.668 53.0196C37.668 54.3519 37.1684 56.5171 37.1684 56.5171C37.1684 56.5171 37.335 59.6815 37.335 61.5135V65.1775C37.335 66.6764 37.1684 67.1761 37.5016 67.8423C37.8346 68.5085 38.1678 71.0067 38.0012 72.006C37.8346 73.0053 37.1685 74.6708 37.1685 74.6708C37.1685 74.6708 36.5023 74.6708 35.503 74.0045C34.5037 73.3383 33.0048 73.8379 33.0048 73.8379C33.0048 73.8379 32.6718 72.8387 32.8382 72.006C32.8382 71.1733 32.6716 70.8401 32.5052 69.6744C32.3386 68.3421 32.0056 64.0118 32.0056 62.0133C32.1722 60.0147 31.839 52.6867 31.5059 49.8554C31.1729 47.024 30.34 42.6939 31.0063 39.8626C31.6725 37.0314 36.0026 27.8713 36.0026 27.8713L41.6653 28.5376L46.3286 39.5296C46.3286 39.5296 46.8282 41.6947 47.1613 45.1922C47.6609 48.6896 48.3271 52.1871 47.9939 53.1864C47.6609 54.3523 48.1605 63.3457 47.9939 66.3435L47.9938 73.3381Z" fill="#344A5E"/>
<path d="M42.8308 12.8821L38.334 24.5403L35.0032 12.8821H42.8308Z" fill="#ADB3BA"/>
<path d="M39.0004 14.8806L39.6666 14.2144C39.6666 14.2144 38.834 12.8821 38.3343 12.8821C37.8347 12.8821 37.002 14.2144 37.002 14.2144L37.6683 14.8806H39.0004ZM37.8345 14.8806L36.1692 23.2079L38.3342 25.373L40.6659 23.2079L39.0004 14.8806H37.8345Z" fill="#F3705A"/>
<path d="M38.001 27.8712C38.001 27.8712 37.1684 37.6973 36.0025 39.6959C34.8366 41.5278 33.5043 41.1948 33.5043 41.1948L29.0076 40.5286C29.0076 40.5286 29.1742 39.5293 30.1734 36.0318C31.1727 32.5344 32.3386 22.042 32.172 20.21C32.0054 18.3781 30.1734 13.5482 30.1734 13.5482C30.1734 13.5482 32.505 12.8819 33.1713 12.3823C33.8375 12.0493 34.8368 12.0493 34.8368 12.0493C36.3355 18.2115 38.1676 25.7061 38.001 27.8712Z" fill="#2A3F4F"/>
<path d="M42.3312 12.2159C42.3312 12.2159 42.9974 12.5489 43.9967 12.8821C44.9959 13.2152 46.4949 13.2152 46.6615 13.3818C46.6615 13.3818 44.8295 15.0473 44.3299 18.0451C43.9968 21.0429 47.4943 40.6953 47.4943 40.6953C47.4943 40.6953 42.9976 41.528 41.8317 41.3616C40.4994 41.195 39.6665 40.0293 39.0005 38.1972C38.3342 36.3652 37.6681 30.0364 38.0012 28.0378C38.3341 26.0393 42.3312 12.2159 42.3312 12.2159Z" fill="#2A3F4F"/>
<path d="M42.4739 7.36565C42.6001 6.73424 42.4099 6.16392 42.049 6.09181C41.6882 6.01969 41.2934 6.47308 41.1672 7.10449C41.041 7.73589 41.2312 8.3062 41.592 8.37832C41.9528 8.45044 42.3477 7.99705 42.4739 7.36565Z" fill="#FFD15C"/>
<path d="M35.834 7.091C35.7078 6.4596 35.313 6.00621 34.9522 6.07833C34.5913 6.15044 34.4012 6.72076 34.5274 7.35216C34.6536 7.98357 35.0484 8.43696 35.4092 8.36484C35.77 8.29272 35.9602 7.72241 35.834 7.091Z" fill="#FFD15C"/>
<path d="M41.6651 5.55417V6.72004C41.6651 6.72004 41.8317 9.21822 40.8324 10.2175V13.0487H35.8361V10.2173C35.0034 8.55183 35.1698 6.55329 35.1698 6.55329C35.1698 6.55329 35.3364 2.72279 35.8361 2.22315C36.3357 1.89011 40.3328 1.55692 41.1655 2.38975C41.9981 3.38902 41.6651 5.55417 41.6651 5.55417Z" fill="#FFD15C"/>
<path d="M35.3365 6.55342C35.5031 6.55342 35.5031 5.88719 35.6695 5.38755C36.0025 4.88791 36.0025 4.38827 36.0025 3.88864C36.0025 3.389 35.836 2.72277 36.5022 2.72277C37.1684 2.72277 39.0004 2.72277 40.3327 2.88936C41.665 2.88936 41.1654 3.88864 41.1654 4.38827C41.1654 4.88791 41.665 6.22022 41.665 6.71986C41.665 6.71986 43.4969 2.72277 41.665 2.22313C41.665 2.22313 41.8316 0.724217 39.3334 0.22458C36.8352 -0.108459 35.6694 1.39045 35.3363 2.05653C35.0034 2.72277 35.0034 5.22095 35.3365 6.55342Z" fill="#415A6B"/>
<path d="M38.0011 11.7162C36.6688 11.5496 35.8359 10.2173 35.8359 10.2173V12.8821H38.5007C40.1662 11.8828 40.8323 10.0508 40.8323 10.0508C40.8323 10.0508 39.3334 11.8828 38.0011 11.7162Z" fill="#F7B64C"/>
<path d="M40.8324 11.0501C40.8324 11.0501 39.3335 12.549 38.3342 12.8821C38.3342 12.8821 39.6666 13.7147 39.8332 14.5476L41.3321 12.0494L40.8324 11.0501ZM35.8361 11.0501C35.8361 11.0501 37.335 12.549 38.3342 12.8821C38.3342 12.8821 37.0019 13.7147 36.8353 14.5476L35.3364 12.0494L35.8361 11.0501Z" fill="#F3F3F3"/>
<path d="M40.9989 11.3832C40.9989 11.3832 40.6658 13.0487 40.1662 14.381C39.6666 15.7133 38.3343 20.8763 38.1677 23.5411C37.8346 26.2058 38.0011 27.8712 38.0011 27.8712C38.0011 27.8712 40.3326 20.21 41.3319 17.7119C42.3312 15.2137 42.9974 14.0478 42.9974 14.0478L41.9982 13.8812L43.164 13.3816C43.164 13.3816 42.9974 12.5489 42.1648 12.0493C41.4985 11.7162 41.4985 11.7162 40.9989 11.3832Z" fill="#344A5E"/>
<path d="M37.002 27.5382C37.002 27.5382 40.4994 28.3709 41.3321 25.5396C42.1648 22.7084 42.1648 22.5418 42.1648 22.5418L38.0011 24.2073L37.002 27.5382Z" fill="#FFD15C"/>
<path d="M35.6694 11.3832L33.5042 13.3817H34.5035L33.3376 13.8814C33.3376 13.8814 37.5013 22.5418 37.8344 28.0378C37.8344 28.0378 38.1674 23.3745 37.5013 20.0436C37.0017 16.7126 35.6694 12.0494 35.6694 11.3832Z" fill="#344A5E"/>
<path d="M38.8337 24.5404C38.6671 25.04 38.334 26.5389 38.001 27.7048C37.8344 28.5375 37.6679 29.2037 37.6679 29.2037C37.6679 29.2037 33.8374 28.5375 31.5057 28.2044C30.8395 28.0378 30.1734 28.0378 30.0068 28.0378C29.0075 28.0378 28.5079 28.3709 28.0082 27.8712C27.5086 27.3716 27.1756 26.0393 27.009 25.04C26.8424 23.8741 27.009 22.7084 27.342 21.8756C27.675 21.0429 27.8416 20.0436 28.0082 19.544C28.0082 19.0444 28.1748 18.7113 28.3413 17.8785C28.3413 17.0458 29.0075 16.0465 29.3406 14.5476C29.8402 13.2153 30.1732 13.5484 30.1732 13.5484C30.1732 13.5484 32.0052 18.3781 32.1718 20.2102C32.3384 21.2095 32.1718 22.875 32.0052 23.0415C32.0052 23.0415 33.5041 23.5411 34.8364 23.7077C35.6691 23.7077 36.6684 24.0407 37.5012 24.2073C38.334 24.3738 38.8337 24.5404 38.8337 24.5404Z" fill="#415A6B"/>
<path d="M38.8338 24.5403C38.8338 24.5403 38.3342 24.3737 37.668 24.2073C37.3349 24.2073 37.0017 24.0407 36.6687 24.0407V25.5396H37.0017C37.0017 25.5396 37.668 25.7062 38.5007 25.7062C38.6674 25.2064 38.6674 24.7068 38.8338 24.5403Z" fill="#2A3F4F"/>
<path d="M32.8383 21.3759C32.8383 21.3759 32.5053 21.2093 32.1721 21.3759C31.8391 21.709 32.0055 21.8756 32.0055 21.8756C32.0055 21.8756 31.6725 21.8756 31.6725 22.3752C31.6725 22.3752 31.3394 22.8748 31.8391 23.0414C32.1721 23.208 33.1714 23.3745 33.671 23.5411C34.1706 23.7077 34.8369 23.7077 35.6695 23.7077H36.3358L36.0027 21.3761C36.0027 21.3761 34.6704 21.5427 34.1708 21.3761L32.8383 21.3759Z" fill="#FFD15C"/>
<path d="M37.335 24.7068L35.6695 24.3737C35.6695 24.3737 35.5029 22.3752 36.0025 21.3759H37.8345L37.335 24.7068Z" fill="#F3F3F3"/>
<path d="M48.6602 23.8741C48.3272 24.8734 47.8275 26.0393 46.8282 26.2057C46.4952 26.2057 45.829 26.3723 45.1627 26.3723C43.6638 26.3723 41.6653 26.2057 40.8326 26.0393C40.333 25.8727 39.3337 25.7062 38.501 25.5396C37.6683 25.373 36.8355 25.373 36.8355 25.373C36.8355 25.373 36.6689 22.3752 37.1685 21.3759H39.9998C40.3328 21.3759 40.666 21.2093 40.999 21.2093C41.3321 21.2093 41.9983 21.3759 42.498 21.2093C42.9976 21.0427 43.8303 21.2093 43.8303 21.2093L44.1633 18.2115V18.0449C44.8295 15.0471 46.6615 13.3816 46.6615 13.3816C46.6615 13.3816 47.4942 13.215 47.8274 14.8805C48.1604 16.546 48.1604 18.2114 48.327 19.3772C48.4936 20.3767 48.9932 22.7082 48.6602 23.8741Z" fill="#415A6B"/>
<path d="M56.8208 67.1759L55.8215 66.8429C55.8215 66.8429 55.8215 66.1767 56.6542 66.0102C57.4869 65.8436 58.4862 65.6772 58.8194 65.344C59.1524 65.1774 60.6513 63.1788 60.6513 63.1788L64.815 64.1781C64.815 64.1781 65.148 65.0108 64.9816 65.8436L64.815 66.5098C64.815 66.5098 63.3161 66.3433 62.3168 66.5098L61.1509 66.6764C61.1509 66.6764 60.4847 67.1761 59.652 67.1761C58.986 67.3425 56.8208 67.1759 56.8208 67.1759Z" fill="#344A5E"/>
<path d="M72.8091 33.8668C72.8091 33.8668 72.9757 40.8618 71.8098 45.3585C71.9764 46.5244 72.6425 58.1825 72.8091 59.6814C72.9757 61.1803 72.9757 66.3432 72.9757 66.3432C72.9757 66.3432 71.3102 65.5106 70.1445 65.1774C68.9786 65.0108 68.6455 65.0108 68.6455 65.0108V61.1803C68.6455 60.3476 68.4789 58.1825 68.4789 57.1832C68.3124 56.3505 68.479 56.1839 68.3124 55.3512C68.1458 54.5186 67.6461 52.3534 67.6461 50.8545C67.6461 49.3556 66.6468 45.5251 66.3138 44.5258C66.1472 43.5265 65.8142 42.0276 65.8142 42.0276C65.8142 42.0276 65.4811 44.5258 65.4811 46.3578C65.3145 48.1897 64.9815 49.6886 65.1481 50.1883C65.3147 50.6879 65.4811 51.1875 65.4811 51.6872C65.4811 52.1868 65.3145 53.8523 65.3145 54.352C65.3145 54.8516 65.1479 59.848 64.9815 60.3476C64.8149 60.8472 64.9815 61.1803 64.9815 61.5135V63.179L65.3145 64.5113C65.3145 64.5113 64.4819 64.6779 62.8163 64.0117C61.1508 63.3454 60.1516 63.3454 60.1516 63.3454C60.1516 63.3454 60.4846 62.0131 60.6512 61.5135C60.8178 61.0138 60.1516 57.3498 60.1516 56.0175V54.5186C60.1516 53.8523 59.985 53.1862 59.985 52.8531C59.985 52.52 59.985 51.8538 60.1516 51.1875C60.3182 50.5213 59.6519 47.8567 59.6519 47.0238C59.4853 46.1912 58.4861 40.8616 58.8192 36.6981C59.3189 32.5344 60.9844 25.2064 60.9844 25.2064L68.1459 26.2057L72.8091 33.8668Z" fill="#415A6B"/>
<path d="M68.3125 6.88646C68.3125 6.88646 67.8129 8.05233 67.9795 9.38464V10.717L63.3162 12.2159L63.6492 10.5504L63.4826 8.88485C63.4826 8.88485 62.3167 7.88558 62.4833 5.38739L62.6499 2.88921C62.6499 2.88921 62.6499 1.2237 63.9822 0.89066C65.3146 0.55762 67.4797 0.89066 67.8127 1.55689C68.3125 2.22313 68.8122 5.88719 68.3125 6.88646Z" fill="#FFD15C"/>
<path d="M69.1454 6.22022C68.9788 6.71986 68.4791 7.2195 68.1461 7.0529C67.8131 7.0529 67.8131 6.38667 67.9795 5.88703C68.3125 5.38739 68.6457 5.05435 68.9788 5.05435C69.3118 5.22095 69.3118 5.72059 69.1454 6.22022ZM62.3169 5.88719C62.3169 6.55342 62.6499 7.05306 62.9831 7.05306C63.3162 7.05306 63.4828 6.55342 63.4828 5.88719C63.4828 5.22095 63.1497 4.72131 62.8165 4.72131C62.4835 4.88791 62.3169 5.38755 62.3169 5.88719Z" fill="#FFD15C"/>
<path d="M68.8121 2.05667C68.479 1.22399 66.9801 0.22472 66.1473 0.0581218C65.3145 -0.108476 63.6491 0.22472 62.9829 1.22399C62.3167 2.05667 62.3167 4.05522 62.3167 4.72145C62.4832 5.22109 62.4832 5.72073 62.4832 5.88732H62.6498C62.6498 5.72073 62.4832 4.55501 62.6498 4.22182C62.8164 3.72218 62.9829 3.22254 62.9829 2.8895C62.9829 2.55646 63.3159 2.05683 63.9822 1.72363C64.6484 1.55703 67.1466 1.72363 67.4796 1.89023C67.8127 2.05683 67.9793 2.55646 67.9793 2.8895C67.8127 3.38914 68.3123 4.22182 68.3123 4.38841V5.88732H68.4789C68.4789 5.88732 68.8119 5.38769 68.8119 4.88805C68.9787 4.55485 69.1453 3.05594 68.8121 2.05667Z" fill="#415A6B"/>
<path d="M65.8143 9.38462C64.4819 9.88426 63.4827 9.05158 63.4827 9.05158L63.6493 10.7171L63.4827 11.3833C67.1467 10.2175 67.9794 7.88586 67.9794 7.88586C67.9794 7.88586 67.3132 8.88498 65.8143 9.38462Z" fill="#F7B64C"/>
<path d="M64.6486 10.8835L64.8151 11.0501L68.1461 11.5498L63.8158 22.3752L62.3169 18.8777L62.4835 12.3825L63.3162 11.3832L64.6486 10.8835Z" fill="#CED6E0"/>
<path d="M65.3146 14.381L64.1487 20.0436H62.4832L62.1501 19.0443C62.1501 19.0443 62.6498 15.0472 62.9828 14.048C63.3159 13.0487 63.8155 12.216 63.8155 12.216L64.6482 11.7164V12.216C64.6485 12.8821 65.3146 14.381 65.3146 14.381Z" fill="#F3705A"/>
<path d="M65.4811 11.3832C65.4811 11.3832 64.8149 11.7162 64.6484 12.3825C64.3154 12.2159 63.9822 12.2159 63.8158 12.3825C63.8158 12.3825 63.6492 11.2166 63.6492 11.0501L64.6484 10.8835H64.815L65.4811 11.3832Z" fill="#F3705A"/>
<path d="M59.4856 22.2086C60.4054 22.2086 61.1511 21.3138 61.1511 20.21C61.1511 19.1063 60.4054 18.2115 59.4856 18.2115C58.5657 18.2115 57.8201 19.1063 57.8201 20.21C57.8201 21.3138 58.5657 22.2086 59.4856 22.2086Z" fill="#415A6B"/>
<path d="M62.3169 12.0494C62.3169 12.0494 62.1503 12.216 61.4842 12.5491C60.8179 12.8821 59.4856 12.8821 59.1526 13.5484C58.653 14.2146 58.3199 16.3796 58.8196 18.3781C59.3192 20.3767 59.9854 24.0407 59.1526 27.8712C58.4864 31.7017 58.1533 36.8647 58.1533 36.8647C58.1533 36.8647 59.3192 37.5309 59.9853 35.8654C60.6513 34.1999 62.3169 25.8727 62.3169 25.8727C62.3169 25.8727 62.6499 20.8763 62.3169 18.8778C61.9838 16.8792 62.4835 12.7155 62.6499 12.3825C62.6501 12.0494 62.3169 12.0494 62.3169 12.0494Z" fill="#344A5E"/>
<path d="M69.4782 10.7169C69.4782 10.7169 70.3109 11.3832 71.3102 11.3832C72.1428 11.3832 73.6417 11.5498 73.8083 12.7155C74.1414 13.8814 73.4753 17.2122 73.1421 18.3781C72.8091 19.544 71.3102 23.3745 71.6432 27.0385C71.9762 30.7026 73.4751 35.699 73.4751 35.699C73.4751 35.699 68.6454 36.3652 66.4802 36.1986C64.3151 36.032 63.3158 35.1993 62.9828 34.2C62.6497 33.2008 61.8169 27.5382 61.8169 26.2059C61.8169 24.8735 61.9835 24.5403 61.9835 24.5403C61.9835 24.5403 63.1494 19.0443 64.4817 15.5469C65.814 12.0494 68.4788 10.2175 68.4788 10.2175L69.4782 10.7169Z" fill="#344A5E"/>
<path d="M67.9793 9.05164C67.9793 9.05164 67.4797 9.55127 66.9801 9.71787C66.4804 10.0509 64.8149 10.8837 64.8149 10.8837L66.3138 12.5493L68.479 10.0511L67.9793 9.05164ZM64.6485 10.8836C63.9822 11.3832 63.6492 11.8829 63.3162 12.7155V12.8821C63.3162 12.8821 63.4828 11.5498 63.4828 10.8836C63.4828 10.2174 63.8158 9.71771 63.8158 9.71771C63.8158 9.71771 63.9822 10.717 64.6485 10.8836Z" fill="#F3F3F3"/>
<path d="M68.3125 9.71765C68.3125 9.71765 68.1459 10.2173 67.6463 10.5503C67.3132 10.8834 65.6477 12.0492 64.4818 14.3808C63.316 16.7124 62.1502 22.2084 61.9836 24.8732C61.9836 24.8732 63.8156 17.7117 65.3145 15.5467C66.8134 13.3817 67.6461 12.7155 67.6461 12.7155L67.1465 12.0492H67.9791C67.9791 12.0492 69.145 11.05 69.3114 11.05C69.478 10.8834 69.478 10.8834 69.3114 10.8834C69.1448 10.8834 68.9784 10.2171 68.6452 10.0507C68.4791 9.71765 68.3125 9.71765 68.3125 9.71765Z" fill="#415A6B"/>
<path d="M63.316 11.3832C63.316 11.3832 62.3167 14.5476 62.4833 15.8799C62.4833 17.3788 63.1495 20.5432 62.4833 23.0414C62.4833 23.0414 61.9836 19.544 61.6506 18.5447C61.3176 17.5454 61.151 13.7149 61.484 12.8821L62.3167 12.7155L61.9836 12.5489C61.9836 12.5489 62.6499 12.0493 62.9829 11.8827C63.1495 11.5498 63.316 11.3832 63.316 11.3832Z" fill="#415A6B"/>
<path d="M63.6493 21.5425V24.5403H62.4834C61.9838 24.5403 61.3176 24.5403 60.9845 24.7069C60.6515 24.7069 60.1519 24.8735 59.8187 24.8735C58.986 25.0401 58.3198 25.3732 57.4871 25.3732C56.3212 25.3732 55.4885 24.3739 55.4885 23.7076C55.4885 23.0414 55.4885 21.3761 55.6551 21.0429C55.8217 20.7098 56.4878 19.7106 56.821 19.3774C57.1542 19.0442 57.4872 18.2115 57.4872 17.8784C57.4872 17.5454 57.6538 17.0458 57.8203 16.5461C57.9869 16.0465 57.8203 15.7135 58.1533 14.8806C58.4863 14.0479 59.3192 13.3817 59.3192 13.3817C58.6529 14.2144 58.3199 16.3795 58.8195 18.3781C58.8195 18.5447 58.8195 18.7111 58.9861 18.8777L58.6531 21.2093C58.6531 21.2093 58.8197 21.2093 59.3193 21.3759C59.6524 21.3759 61.3179 21.5425 62.3172 21.5425H63.6493Z" fill="#415A6B"/>
<path d="M63.6493 21.5425H62.4835C61.3176 21.5425 59.8187 21.3759 59.4856 21.3759H59.1526V22.7084H59.3192C59.3192 22.7084 61.3177 22.875 62.65 23.0414H63.8159V21.5425H63.6493Z" fill="#344A5E"/>
<path d="M57.8201 20.8763C57.8201 20.8763 58.3197 21.3759 59.319 21.2093L60.9845 19.877L60.6514 18.7111C60.6514 18.7111 59.6522 18.7111 58.8195 19.7104L57.8201 20.8763Z" fill="#FFD15C"/>
<path d="M73.8084 15.5468C73.4754 17.8784 72.3095 20.0436 70.4775 21.7091C70.3109 21.8757 70.3109 21.8757 70.1445 21.8757C69.4783 22.3753 68.1459 22.5419 67.9793 22.7083H66.9801C66.647 22.7083 66.4804 22.8749 66.1474 22.8749H62.6499C61.3176 22.7083 59.3191 22.5419 59.3191 22.5419C59.1525 19.3775 60.6514 18.8779 60.6514 18.8779C60.6514 18.8779 61.9837 18.7113 62.8165 18.7113H63.6492C64.8151 18.5447 66.4804 18.3782 66.8136 18.3782C67.1467 18.3782 67.3133 18.3782 67.4799 18.5448C67.6465 18.7114 67.6465 18.7114 67.6465 18.3782C67.6465 18.0452 67.8131 18.3782 67.8131 18.0452C67.9797 17.7121 68.3127 16.7129 68.9789 15.547C69.6452 14.3811 70.6444 12.7158 71.8102 12.0495C71.9768 11.7165 72.3098 11.7165 72.4764 11.7165C73.1426 11.8831 73.6423 12.2161 73.8087 12.8824C73.975 13.3817 73.975 14.381 73.8084 15.5468Z" fill="#415A6B"/>
<path d="M73.8084 15.5468C73.4754 17.8784 72.3095 20.0436 70.4775 21.7091C70.3109 21.8757 70.3109 21.8757 70.1445 21.8757C69.4783 22.3753 68.1459 22.5419 67.9793 22.7083H66.9801C66.647 22.7083 66.4804 22.8749 66.1474 22.8749H62.6499C61.3176 22.7083 59.3191 22.5419 59.3191 22.5419C59.1525 19.3775 60.6514 18.8779 60.6514 18.8779C60.6514 18.8779 61.9837 18.7113 62.8165 18.7113H63.6492C64.8151 18.5447 66.4804 18.3782 66.8136 18.3782C67.1467 18.3782 67.3133 18.3782 67.4799 18.5448C67.6465 18.7114 67.6465 18.7114 67.6465 18.3782C67.6465 18.0452 67.8131 18.3782 67.8131 18.0452C67.9797 17.7121 68.3127 16.7129 68.9789 15.547C69.6452 14.3811 70.6444 12.7158 71.8102 12.0495C71.9768 11.7165 72.3098 11.7165 72.4764 11.7165C73.1426 11.8831 73.6423 12.2161 73.8087 12.8824C73.975 13.3817 73.975 14.381 73.8084 15.5468Z" fill="#415A6B"/>
<path d="M66.9801 68.6748L65.8142 68.3418V68.1752C65.8142 68.1752 65.8142 67.5089 66.4804 67.1759C67.1467 67.0093 67.8128 66.5097 67.9794 66.1766C68.1459 65.8436 68.9786 64.3447 68.9786 64.3447L72.8091 65.3439C72.8091 65.3439 72.9757 66.1766 72.8091 66.6763L72.6425 67.1759C72.6425 67.1759 71.8098 67.5089 71.6433 67.6755C71.4767 67.8421 71.3102 68.3418 70.8106 68.3418C70.4775 68.6748 68.1459 69.008 66.9801 68.6748Z" fill="#344A5E"/>
<path d="M65.6478 68.1752C65.6478 68.1752 67.3133 68.6749 68.8122 68.5083C70.3111 68.5083 70.9774 68.3417 71.1438 68.0086C71.3104 67.6756 71.6435 67.3424 71.9765 67.1759C72.3095 67.0095 72.6427 66.6763 72.6427 66.6763V67.6756C72.6427 67.6756 72.3097 68.0086 71.8101 68.1752V67.6756C71.8101 67.6756 71.477 67.6756 71.3104 68.1752C71.1438 68.6749 69.1453 69.1745 67.4799 68.8415C65.8143 68.6749 65.4812 68.6749 65.6478 68.1752ZM55.8215 66.8429C55.8215 66.8429 56.8208 67.0095 58.4863 67.1759C60.1518 67.1759 60.6514 67.0093 61.1511 66.8429C61.6507 66.6763 64.4819 66.0102 64.9816 65.8436C64.9816 65.8436 65.1482 66.8429 64.9816 66.8429C64.815 66.8429 63.4827 67.1759 62.65 67.0095V66.6765C62.65 66.6765 61.8173 66.8431 61.1511 67.1761C60.4848 67.5091 59.1525 68.0088 56.9874 67.6757C56.9874 67.3425 55.6551 67.1759 55.8215 66.8429Z" fill="#415A6B"/>
<path d="M23.1786 67.1759L24.1778 66.8429C24.1778 66.8429 24.1778 66.1767 23.3452 66.0102C22.5125 65.8436 21.5132 65.6772 21.18 65.344C20.847 65.1774 19.3481 63.1788 19.3481 63.1788L15.1844 64.1781C15.1844 64.1781 14.8513 65.0108 15.0178 65.8436L15.1844 66.5098C15.1844 66.5098 16.6833 66.3433 17.6826 66.5098L18.6818 66.8429C18.6818 66.8429 19.3481 67.3425 20.1807 67.3425C21.0134 67.3425 23.1786 67.1759 23.1786 67.1759Z" fill="#344A5E"/>
<path d="M7.19028 33.8668V49.8552C7.19028 50.8545 7.35688 58.1825 7.19028 59.6814C7.02368 61.1803 7.02368 66.3433 7.02368 66.3433C7.02368 66.3433 8.68919 65.5106 9.85491 65.1774C11.0208 64.8443 11.5204 65.0108 11.5204 65.0108V61.1803C11.5204 60.3476 11.687 58.1825 11.687 57.1832C11.8536 56.3505 11.687 56.1839 11.8536 55.3512C12.0202 54.5186 12.5198 52.3534 12.5198 50.8545C12.5198 49.3556 13.5191 45.5251 13.8522 44.5258C14.0188 43.5265 14.3518 42.0276 14.3518 42.0276C14.3518 42.0276 14.6848 44.5258 14.6848 46.3578C14.8514 48.1897 15.1845 49.6886 15.0179 50.1883C14.8513 50.6879 14.6848 51.1875 14.6848 51.6872C14.6848 52.1868 14.8514 53.8523 14.8514 54.352C14.8514 54.8516 15.018 59.848 15.1845 60.3476C15.3511 60.8472 15.1845 61.1803 15.1845 61.5135V63.179L15.0179 64.3449C15.0179 64.3449 15.8505 64.5115 17.5161 63.8452C19.015 63.3456 20.0142 63.179 20.0142 63.179C20.0142 63.179 19.6812 61.8467 19.5146 61.347C19.348 60.8474 20.0142 57.1833 20.0142 55.851V54.3521C20.0142 53.6859 20.1808 53.0198 20.1808 52.6866C20.1808 52.3536 20.1808 51.6873 20.0142 51.0211C19.8476 50.3549 20.5139 47.6902 20.5139 46.8574C20.5139 46.0247 21.6798 40.6952 21.3466 36.5316C20.8469 32.3679 19.1814 25.04 19.1814 25.04L12.0199 26.0393L7.19028 33.8668Z" fill="#415A6B"/>
<path d="M12.1868 8.55194C12.1868 8.55194 12.853 10.2174 16.3505 11.3832V8.88498C15.018 9.88425 13.6857 9.71766 12.1868 8.55194Z" fill="#F7B64C"/>
<path d="M15.3507 10.8835L15.1843 11.0501L11.8533 11.5498L16.1836 22.3752L17.6825 18.8777L17.5159 12.3825L16.6832 11.3832L15.3507 10.8835Z" fill="#CED6E0"/>
<path d="M14.6848 14.381L15.8507 20.0436H17.5162L17.8492 19.0443C17.8492 19.0443 17.3496 15.0472 17.0166 14.048C16.6835 13.0487 16.1839 12.216 16.1839 12.216L15.3512 11.7164V12.216C15.3509 12.8821 14.6848 14.381 14.6848 14.381Z" fill="#66C6B9"/>
<path d="M14.5183 11.3832C14.5183 11.3832 15.1845 11.7162 15.351 12.3825C15.684 12.2159 16.0172 12.2159 16.1837 12.3825C16.1837 12.3825 16.3503 11.2166 16.3503 11.0501L15.351 10.8835H15.1844L14.5183 11.3832Z" fill="#66C6B9"/>
<path d="M20.5139 22.2086C21.4337 22.2086 22.1794 21.3138 22.1794 20.21C22.1794 19.1063 21.4337 18.2115 20.5139 18.2115C19.5941 18.2115 18.8484 19.1063 18.8484 20.21C18.8484 21.3138 19.5941 22.2086 20.5139 22.2086Z" fill="#415A6B"/>
<path d="M17.6826 12.0494C17.6826 12.0494 17.8492 12.216 18.5153 12.5491C19.1816 12.8821 20.5139 12.8821 20.8469 13.5484C21.18 14.2146 21.6796 16.3796 21.1799 18.3781C20.6803 20.3767 20.0141 24.0407 20.8469 27.8712C21.6796 31.7017 21.8462 36.8647 21.8462 36.8647C21.8462 36.8647 20.6803 37.5309 20.0142 35.8654C19.348 34.3665 17.6826 25.8727 17.6826 25.8727C17.6826 25.8727 17.3496 20.8763 17.6826 18.8778C18.0157 16.8792 17.5161 12.7155 17.3496 12.3825C17.3495 12.0494 17.6826 12.0494 17.6826 12.0494Z" fill="#344A5E"/>
<path d="M10.5212 10.7169C10.5212 10.7169 9.68852 11.3832 8.68924 11.3832C7.85657 11.5497 6.35766 11.7162 6.19106 12.8821C6.02446 14.0479 6.5241 17.3788 6.85729 18.5447C7.19033 19.7105 8.68924 23.541 8.3562 27.2051C8.02316 30.8691 6.52425 35.8655 6.52425 35.8655C6.52425 35.8655 11.354 36.5318 13.5192 36.3652C15.6843 36.1986 16.6836 35.3659 17.0166 34.3666C17.3497 33.3673 18.1825 27.7047 18.1825 26.3724C18.1825 25.0401 18.0159 24.7069 18.0159 24.7069C18.0159 24.7069 16.6836 19.2109 15.3511 15.7134C14.1853 12.3826 11.5206 10.384 11.5206 10.384L10.5212 10.7169Z" fill="#344A5E"/>
<path d="M12.0201 9.05164C12.0201 9.05164 12.5198 9.55127 13.0194 9.71787C13.5191 10.0509 15.1846 11.0502 15.1846 11.0502L13.6857 12.7157L11.5205 10.0509L12.0201 9.05164ZM15.351 10.8836C16.0172 11.3832 16.3503 11.8829 16.6833 12.7155V12.8821C16.6833 12.8821 16.5167 11.5498 16.5167 10.8836C16.5167 10.2174 16.1837 9.71771 16.1837 9.71771C16.1837 9.71771 16.0172 10.717 15.351 10.8836Z" fill="#F3F3F3"/>
<path d="M11.6871 9.71765C11.6871 9.71765 11.8537 10.2173 12.3534 10.5503C12.853 10.8834 14.3519 12.0492 15.5178 14.3808C16.5171 16.7124 17.8494 22.2084 18.016 24.8732C18.016 24.8732 16.184 17.7117 14.6851 15.5467C13.1862 13.2151 12.3535 12.7155 12.3535 12.7155L12.8532 12.0492H12.0205C12.0205 12.0492 10.8546 11.05 10.6882 11.05C10.5216 10.8834 10.5216 10.8834 10.6882 10.8834C10.8548 10.8834 11.0212 10.2171 11.3544 10.0507C11.5205 9.71765 11.6871 9.71765 11.6871 9.71765Z" fill="#415A6B"/>
<path d="M16.6833 11.3832C16.6833 11.3832 17.6826 14.5476 17.516 15.8799C17.516 17.3788 16.8498 20.5432 17.516 23.0414C17.516 23.0414 18.0157 19.544 18.3487 18.5447C18.6817 17.5454 18.8483 13.7149 18.5153 12.8821L17.6826 12.7155L18.0157 12.5489C18.0157 12.5489 17.3494 12.0493 17.0164 11.8827C16.8498 11.5498 16.6833 11.3832 16.6833 11.3832Z" fill="#415A6B"/>
<path d="M16.3501 21.5425V24.5403H17.516C18.0156 24.5403 18.6818 24.5403 19.0149 24.7069C19.3479 24.7069 19.8476 24.8735 20.1808 24.8735C21.0134 25.0401 21.6797 25.3732 22.5123 25.3732C23.6782 25.3732 24.5109 24.3739 24.5109 23.7076C24.5109 23.0414 24.5109 21.3761 24.3443 21.0429C24.1777 20.7098 23.5116 19.7106 23.1784 19.3774C22.8452 19.0442 22.5122 18.2115 22.5122 17.8784C22.5122 17.5454 22.3456 17.0458 22.1791 16.5461C22.0125 16.0465 22.1791 15.7135 21.8461 14.8806C21.5131 14.0479 20.6802 13.3817 20.6802 13.3817C21.1799 14.0479 21.5129 16.2129 21.0133 18.2115C21.0133 18.3781 21.0133 18.5445 20.8467 18.7111L21.1797 21.0427C21.1797 21.0427 21.0131 21.0427 20.5135 21.2093C20.1804 21.2093 18.5149 21.3759 17.5157 21.3759C16.8497 21.5425 16.3501 21.5425 16.3501 21.5425Z" fill="#415A6B"/>
<path d="M16.3502 21.5425H17.5161C18.6819 21.5425 20.1808 21.3759 20.5139 21.3759H20.8469V22.7084H20.6803C20.6803 22.7084 18.6818 22.875 17.3495 23.0414H16.1836V21.5425H16.3502Z" fill="#344A5E"/>
<path d="M22.1793 20.8763C22.1793 20.8763 21.6797 21.3759 20.6804 21.2093L19.0149 19.877L19.3479 18.7111C19.3479 18.7111 20.3472 18.7111 21.1799 19.7104L22.1793 20.8763Z" fill="#FFD15C"/>
<path d="M6.19115 15.5468C6.69079 17.8784 7.69006 20.0436 9.52201 21.7091C9.68861 21.8757 9.68861 21.8757 9.85505 21.8757C10.5213 22.3753 11.8536 22.5419 12.0202 22.7083H13.0195C13.3525 22.7083 13.5191 22.8749 13.8521 22.8749H17.3496C18.6819 22.7083 20.6805 22.5419 20.6805 22.5419C20.8471 19.3775 19.3482 18.8779 19.3482 18.8779C19.3482 18.8779 18.0158 18.7113 17.183 18.7113H16.3503C15.1845 18.5447 13.5191 18.3782 13.1859 18.3782C12.8529 18.3782 12.6863 18.3782 12.5197 18.5448C12.3531 18.7114 12.3531 18.7114 12.3531 18.3782C12.3531 18.0452 12.1865 18.3782 12.1865 18.0452C12.0199 17.7121 11.6868 16.7129 11.0206 15.547C10.3544 14.3811 9.3551 12.7158 8.18939 12.0495C8.02279 11.7165 7.68975 11.7165 7.52315 11.7165C6.85692 11.8831 6.35728 12.2161 6.19084 12.8824C6.02455 13.3817 6.02455 14.381 6.19115 15.5468Z" fill="#415A6B"/>
<path d="M6.19115 15.5468C6.69079 17.8784 7.69006 20.0436 9.52201 21.7091C9.68861 21.8757 9.68861 21.8757 9.85505 21.8757C10.5213 22.3753 11.8536 22.5419 12.0202 22.7083H13.0195C13.3525 22.7083 13.5191 22.8749 13.8521 22.8749H17.3496C18.6819 22.7083 20.6805 22.5419 20.6805 22.5419C20.8471 19.3775 19.3482 18.8779 19.3482 18.8779C19.3482 18.8779 18.0158 18.7113 17.183 18.7113H16.3503C15.1845 18.5447 13.5191 18.3782 13.1859 18.3782C12.8529 18.3782 12.6863 18.3782 12.5197 18.5448C12.3531 18.7114 12.3531 18.7114 12.3531 18.3782C12.3531 18.0452 12.1865 18.3782 12.1865 18.0452C12.0199 17.7121 11.6868 16.7129 11.0206 15.547C10.3544 14.3811 9.3551 12.7158 8.18939 12.0495C8.02279 11.7165 7.68975 11.7165 7.52315 11.7165C6.85692 11.8831 6.35728 12.2161 6.19084 12.8824C6.02455 13.3817 6.02455 14.381 6.19115 15.5468Z" fill="#415A6B"/>
<path d="M13.0193 68.6748L14.1852 68.3418V68.1752C14.1852 68.1752 14.1852 67.5089 13.5189 67.1759C12.8527 67.0093 12.1866 66.5097 12.02 66.1766C11.8534 65.8436 11.0208 64.3447 11.0208 64.3447L7.19025 65.3439C7.19025 65.3439 7.02366 66.1766 7.19025 66.6763L7.35685 67.1759C7.35685 67.1759 8.18953 67.5089 8.35613 67.6755C8.52272 67.8421 8.68917 68.3418 9.1888 68.3418C9.68844 68.3418 11.8534 69.008 13.0193 68.6748Z" fill="#344A5E"/>
<path d="M14.3516 68.1752C14.3516 68.1752 12.6861 68.6749 11.1872 68.5083C9.68828 68.5083 9.02204 68.3417 8.8556 68.0086C8.689 67.6756 8.35596 67.3424 8.02292 67.1759C7.68989 67.0095 7.35669 66.6763 7.35669 66.6763V67.6756C7.35669 67.6756 7.68973 68.0086 8.18937 68.1752V67.6756C8.18937 67.6756 8.52241 67.6756 8.689 68.1752C8.8556 68.6749 10.8541 69.1745 12.5195 68.8415C14.1852 68.6749 14.5182 68.6749 14.3516 68.1752ZM24.1779 66.8429C24.1779 66.8429 23.1786 67.0095 21.5131 67.1759C19.8476 67.3425 19.348 67.0093 18.8483 66.8429C18.3487 66.6763 15.5175 66.0102 15.0178 65.8436C15.0178 65.8436 14.8512 66.8429 15.0178 66.8429C15.1844 66.8429 16.5168 67.1759 17.3494 67.0095V66.6765C17.3494 66.6765 18.1821 66.8431 18.8483 67.1761C19.348 67.5091 20.8469 68.0088 23.012 67.6757C23.012 67.3425 24.3443 67.1759 24.1779 66.8429Z" fill="#415A6B"/>
</g>
<defs>
<clipPath id="clip0_290_2569">
<rect width="80" height="80" fill="white"/>
</clipPath>
</defs>
</svg>
