<svg width="80" height="80" viewBox="0 0 80 80" fill="none" xmlns="http://www.w3.org/2000/svg">
<g clip-path="url(#clip0_290_2463)">
<path d="M54.375 16.125C56.875 17.5 55.375 21.25 52.625 20.625C48.625 19.625 44.25 19.5 39.875 20.375C35.5 21.25 31.625 23.25 28.375 25.75C26.125 27.5 23.25 24.625 25 22.375C28.25 18.125 33 15 38.5 13.875C44.125 12.625 49.625 13.625 54.375 16.125Z" fill="#FF6969"/>
<path d="M50.1252 40C50.1252 39.125 51.1252 38.25 52.6252 37.75C52.2502 35.875 51.6252 34.25 50.6252 32.75C49.2502 33.5 47.8752 33.5 47.2502 32.875C46.6252 32.25 46.7502 30.875 47.3752 29.5C45.8752 28.5 44.2502 27.75 42.3752 27.5C41.8752 29 41.0002 30 40.1252 30C39.2502 30 38.3752 29 37.8752 27.5C36.0002 27.875 34.3752 28.5 32.8752 29.5C33.6252 30.875 33.6252 32.25 33.0002 32.875C32.3752 33.5 31.0002 33.375 29.6252 32.75C28.6252 34.25 27.8752 35.875 27.6252 37.75C29.1252 38.25 30.1252 39.125 30.1252 40C30.1252 40.875 29.1252 41.75 27.6252 42.25C28.0002 44.125 28.6252 45.75 29.6252 47.25C31.0002 46.5 32.3752 46.5 33.0002 47.125C33.6252 47.75 33.5002 49.125 32.8752 50.5C34.3752 51.5 36.0002 52.25 37.8752 52.5C38.3752 51 39.2502 50 40.1252 50C41.0002 50 41.8752 51 42.3752 52.5C44.2502 52.125 45.8752 51.5 47.3752 50.5C46.6252 49.125 46.6252 47.75 47.2502 47.125C47.8752 46.5 49.2502 46.625 50.6252 47.25C51.6252 45.75 52.3752 44.125 52.6252 42.25C51.0002 41.75 50.1252 40.875 50.1252 40ZM40.0002 46.125C36.6252 46.125 33.8752 43.375 33.8752 40C33.8752 36.625 36.6252 33.875 40.0002 33.875C43.3752 33.875 46.1252 36.625 46.1252 40C46.1252 43.375 43.3752 46.125 40.0002 46.125Z" fill="url(#paint0_linear_290_2463)"/>
<path d="M25.625 63.875C23.125 62.5 24.625 58.75 27.375 59.375C31.375 60.375 35.75 60.5 40.125 59.625C44.5 58.75 48.375 56.75 51.625 54.25C53.875 52.5 56.75 55.375 55 57.625C51.75 61.875 47 65 41.5 66.125C35.875 67.375 30.375 66.375 25.625 63.875Z" fill="url(#paint1_linear_290_2463)"/>
<path d="M40.7499 61.5C42.4999 61 44.1249 62.25 44.2499 64.125L44.3749 68L40.9999 68.875L39.1249 65.5C38.1249 64 38.9999 62 40.7499 61.5Z" fill="#FF8F7D"/>
<path d="M47.5002 70.5C48.1216 70.5 48.6252 69.9963 48.6252 69.375C48.6252 68.7537 48.1216 68.25 47.5002 68.25C46.8789 68.25 46.3752 68.7537 46.3752 69.375C46.3752 69.9963 46.8789 70.5 47.5002 70.5Z" fill="#F9B9AA"/>
<path d="M43.75 80C48.0302 80 51.5 76.5302 51.5 72.25C51.5 67.9698 48.0302 64.5 43.75 64.5C39.4698 64.5 36 67.9698 36 72.25C36 76.5302 39.4698 80 43.75 80Z" fill="url(#paint2_linear_290_2463)"/>
<path d="M38.1248 73.125C38.8841 73.125 39.4998 72.5094 39.4998 71.75C39.4998 70.9906 38.8841 70.375 38.1248 70.375C37.3654 70.375 36.7498 70.9906 36.7498 71.75C36.7498 72.5094 37.3654 73.125 38.1248 73.125Z" fill="#F9B9AA"/>
<path d="M37.75 72.5C36.75 69.125 38.25 64.5 41.375 63.625C44.5 62.75 48 66 49 69.375C50 72.75 47.875 75 44.75 75.875C41.75 76.75 38.75 75.875 37.75 72.5Z" fill="url(#paint3_linear_290_2463)"/>
<path d="M39.0336 76.6503C39.4758 78.2471 42.3152 78.8544 45.3757 78.0068C48.4361 77.1592 50.5586 75.1777 50.1164 73.5809C49.6742 71.9842 46.8347 71.3769 43.7743 72.2244C40.7138 73.072 38.5913 75.0536 39.0336 76.6503Z" fill="#4B6370"/>
<path d="M44 66C43.5 65.375 42.625 65 41.875 65.25C41.125 65.5 40.5 66.25 40.375 67L44 66Z" fill="white"/>
<path d="M40.875 71.375C41.3583 71.375 41.75 70.9833 41.75 70.5C41.75 70.0168 41.3583 69.625 40.875 69.625C40.3918 69.625 40 70.0168 40 70.5C40 70.9833 40.3918 71.375 40.875 71.375Z" fill="#4B6370"/>
<path d="M45.3752 70.125C45.8585 70.125 46.2502 69.7333 46.2502 69.25C46.2502 68.7668 45.8585 68.375 45.3752 68.375C44.892 68.375 44.5002 68.7668 44.5002 69.25C44.5002 69.7333 44.892 70.125 45.3752 70.125Z" fill="#4B6370"/>
<path d="M16.1248 25.625C17.4998 23.125 21.2498 24.625 20.6248 27.375C19.6248 31.375 19.4998 35.75 20.3748 40.125C21.2498 44.5 23.2498 48.375 25.7498 51.625C27.4998 53.875 24.6248 56.75 22.3748 55C18.1248 51.75 14.9998 47 13.8748 41.5C12.6248 35.875 13.6248 30.375 16.1248 25.625Z" fill="url(#paint4_linear_290_2463)"/>
<path d="M18.4998 40.75C18.9998 42.5 17.7498 44.125 15.8748 44.25L11.9998 44.375L11.1248 41L14.4998 39.125C15.9998 38.125 17.9998 39 18.4998 40.75Z" fill="#FF8F7D"/>
<path d="M10.6252 48.625C11.2466 48.625 11.7502 48.1213 11.7502 47.5C11.7502 46.8787 11.2466 46.375 10.6252 46.375C10.0039 46.375 9.50024 46.8787 9.50024 47.5C9.50024 48.1213 10.0039 48.625 10.6252 48.625Z" fill="#F9B9AA"/>
<path d="M7.75 51.5C12.0302 51.5 15.5 48.0302 15.5 43.75C15.5 39.4698 12.0302 36 7.75 36C3.46979 36 0 39.4698 0 43.75C0 48.0302 3.46979 51.5 7.75 51.5Z" fill="url(#paint5_linear_290_2463)"/>
<path d="M8.25 39.5C9.00939 39.5 9.625 38.8844 9.625 38.125C9.625 37.3656 9.00939 36.75 8.25 36.75C7.49061 36.75 6.875 37.3656 6.875 38.125C6.875 38.8844 7.49061 39.5 8.25 39.5Z" fill="#F9B9AA"/>
<path d="M7.49988 37.75C10.8749 36.75 15.4999 38.25 16.3749 41.375C17.2499 44.5 13.9999 48 10.6249 49C7.24988 50 4.99988 47.875 4.12488 44.75C3.24988 41.75 4.12488 38.75 7.49988 37.75Z" fill="url(#paint6_linear_290_2463)"/>
<path d="M3.20181 38.9645C1.60506 39.4067 0.997741 42.2462 1.84532 45.3066C2.69291 48.3671 4.67443 50.4896 6.27118 50.0473C7.86793 49.6051 8.47525 46.7657 7.62767 43.7052C6.78008 40.6448 4.79856 38.5223 3.20181 38.9645Z" fill="#4B6370"/>
<path d="M13.9998 44C14.6248 43.5 14.9998 42.625 14.7498 41.875C14.4998 41 13.7498 40.5 12.9998 40.375L13.9998 44Z" fill="white"/>
<path d="M9.49976 41.75C9.983 41.75 10.3748 41.3583 10.3748 40.875C10.3748 40.3918 9.983 40 9.49976 40C9.01651 40 8.62476 40.3918 8.62476 40.875C8.62476 41.3583 9.01651 41.75 9.49976 41.75Z" fill="#4B6370"/>
<path d="M10.7498 46.25C11.233 46.25 11.6248 45.8583 11.6248 45.375C11.6248 44.8918 11.233 44.5 10.7498 44.5C10.2665 44.5 9.87476 44.8918 9.87476 45.375C9.87476 45.8583 10.2665 46.25 10.7498 46.25Z" fill="#4B6370"/>
<path d="M16.1248 25.625C17.4998 23.125 21.2498 24.625 20.6248 27.375C19.6248 31.375 19.4998 35.75 20.3748 40.125C21.2498 44.5 23.2498 48.375 25.7498 51.625C27.4998 53.875 24.6248 56.75 22.3748 55C18.1248 51.75 14.9998 47 13.8748 41.5C12.6248 35.875 13.6248 30.375 16.1248 25.625Z" fill="url(#paint7_linear_290_2463)"/>
<path d="M18.4998 40.75C18.9998 42.5 17.7498 44.125 15.8748 44.25L11.9998 44.375L11.1248 41L14.4998 39.125C15.9998 38.125 17.9998 39 18.4998 40.75Z" fill="#FF8F7D"/>
<path d="M10.6252 48.625C11.2466 48.625 11.7502 48.1213 11.7502 47.5C11.7502 46.8787 11.2466 46.375 10.6252 46.375C10.0039 46.375 9.50024 46.8787 9.50024 47.5C9.50024 48.1213 10.0039 48.625 10.6252 48.625Z" fill="#F9B9AA"/>
<path d="M7.75 51.5C12.0302 51.5 15.5 48.0302 15.5 43.75C15.5 39.4698 12.0302 36 7.75 36C3.46979 36 0 39.4698 0 43.75C0 48.0302 3.46979 51.5 7.75 51.5Z" fill="url(#paint8_linear_290_2463)"/>
<path d="M8.25 39.5C9.00939 39.5 9.625 38.8844 9.625 38.125C9.625 37.3656 9.00939 36.75 8.25 36.75C7.49061 36.75 6.875 37.3656 6.875 38.125C6.875 38.8844 7.49061 39.5 8.25 39.5Z" fill="#F9B9AA"/>
<path d="M7.49988 37.75C10.8749 36.75 15.4999 38.25 16.3749 41.375C17.2499 44.5 13.9999 48 10.6249 49C7.24988 50 4.99988 47.875 4.12488 44.75C3.24988 41.75 4.12488 38.75 7.49988 37.75Z" fill="url(#paint9_linear_290_2463)"/>
<path d="M3.20181 38.9645C1.60506 39.4067 0.997741 42.2462 1.84532 45.3066C2.69291 48.3671 4.67443 50.4896 6.27118 50.0473C7.86793 49.6051 8.47525 46.7657 7.62767 43.7052C6.78008 40.6448 4.79856 38.5223 3.20181 38.9645Z" fill="#4B6370"/>
<path d="M13.9998 44C14.6248 43.5 14.9998 42.625 14.7498 41.875C14.4998 41 13.7498 40.5 12.9998 40.375L13.9998 44Z" fill="white"/>
<path d="M9.49976 41.75C9.983 41.75 10.3748 41.3583 10.3748 40.875C10.3748 40.3918 9.983 40 9.49976 40C9.01651 40 8.62476 40.3918 8.62476 40.875C8.62476 41.3583 9.01651 41.75 9.49976 41.75Z" fill="#4B6370"/>
<path d="M10.7498 46.25C11.233 46.25 11.6248 45.8583 11.6248 45.375C11.6248 44.8918 11.233 44.5 10.7498 44.5C10.2665 44.5 9.87476 44.8918 9.87476 45.375C9.87476 45.8583 10.2665 46.25 10.7498 46.25Z" fill="#4B6370"/>
<path d="M39.25 18.5C37.5 19 35.875 17.75 35.75 15.875L35.625 12L39 11.125L40.875 14.5C41.875 16 41 18 39.25 18.5Z" fill="#FF8F7D"/>
<path d="M32.5002 11.75C33.1216 11.75 33.6252 11.2463 33.6252 10.625C33.6252 10.0037 33.1216 9.5 32.5002 9.5C31.8789 9.5 31.3752 10.0037 31.3752 10.625C31.3752 11.2463 31.8789 11.75 32.5002 11.75Z" fill="#F9B9AA"/>
<path d="M36.25 15.5C40.5302 15.5 44 12.0302 44 7.75C44 3.46979 40.5302 0 36.25 0C31.9698 0 28.5 3.46979 28.5 7.75C28.5 12.0302 31.9698 15.5 36.25 15.5Z" fill="url(#paint10_linear_290_2463)"/>
<path d="M41.8748 9.625C42.6341 9.625 43.2498 9.00939 43.2498 8.25C43.2498 7.49061 42.6341 6.875 41.8748 6.875C41.1154 6.875 40.4998 7.49061 40.4998 8.25C40.4998 9.00939 41.1154 9.625 41.8748 9.625Z" fill="#F9B9AA"/>
<path d="M42.25 7.5C43.25 10.875 41.75 15.5 38.625 16.375C35.5 17.25 32 14 31 10.625C30 7.25 32.125 5 35.25 4.125C38.375 3.25 41.25 4.125 42.25 7.5Z" fill="url(#paint11_linear_290_2463)"/>
<path d="M41.0485 3.30777C40.6063 1.71102 37.7668 1.1037 34.7064 1.95128C31.6459 2.79887 29.5234 4.78039 29.9657 6.37714C30.4079 7.97389 33.2473 8.58121 36.3078 7.73362C39.3682 6.88604 41.4907 4.90452 41.0485 3.30777Z" fill="#4B6370"/>
<path d="M36 14C36.5 14.625 37.375 15 38.125 14.75C39 14.5 39.5 13.75 39.625 13L36 14Z" fill="white"/>
<path d="M39.1252 10.375C39.6085 10.375 40.0002 9.98325 40.0002 9.5C40.0002 9.01675 39.6085 8.625 39.1252 8.625C38.642 8.625 38.2502 9.01675 38.2502 9.5C38.2502 9.98325 38.642 10.375 39.1252 10.375Z" fill="#4B6370"/>
<path d="M34.625 11.625C35.1083 11.625 35.5 11.2332 35.5 10.75C35.5 10.2668 35.1083 9.875 34.625 9.875C34.1418 9.875 33.75 10.2668 33.75 10.75C33.75 11.2332 34.1418 11.625 34.625 11.625Z" fill="#4B6370"/>
<path d="M63.8748 54.375C62.4998 56.875 58.7498 55.375 59.3748 52.625C60.3748 48.625 60.4998 44.25 59.6248 39.875C58.7498 35.5 56.7498 31.625 54.2498 28.375C52.4998 26.125 55.3748 23.25 57.6248 25C61.8748 28.25 64.9998 33 66.1248 38.5C67.3748 44.125 66.3748 49.625 63.8748 54.375Z" fill="url(#paint12_linear_290_2463)"/>
<path d="M61.5001 39.25C61.0001 37.5 62.2501 35.875 64.1251 35.75L68.0001 35.625L68.8751 39L65.5001 40.875C64.0001 41.875 62.0001 41 61.5001 39.25Z" fill="#FF8F7D"/>
<path d="M69.3752 33.625C69.9966 33.625 70.5002 33.1213 70.5002 32.5C70.5002 31.8787 69.9966 31.375 69.3752 31.375C68.7539 31.375 68.2502 31.8787 68.2502 32.5C68.2502 33.1213 68.7539 33.625 69.3752 33.625Z" fill="#F9B9AA"/>
<path d="M72.2502 44C76.5305 44 80.0002 40.5302 80.0002 36.25C80.0002 31.9698 76.5305 28.5 72.2502 28.5C67.97 28.5 64.5002 31.9698 64.5002 36.25C64.5002 40.5302 67.97 44 72.2502 44Z" fill="url(#paint13_linear_290_2463)"/>
<path d="M71.75 43.25C72.5094 43.25 73.125 42.6344 73.125 41.875C73.125 41.1156 72.5094 40.5 71.75 40.5C70.9906 40.5 70.375 41.1156 70.375 41.875C70.375 42.6344 70.9906 43.25 71.75 43.25Z" fill="#F9B9AA"/>
<path d="M72.4999 42.25C69.1249 43.25 64.4999 41.75 63.6249 38.625C62.7499 35.5 65.9999 32 69.3749 31C72.7499 30 74.9999 32.125 75.8749 35.25C76.7499 38.25 75.8749 41.25 72.4999 42.25Z" fill="url(#paint14_linear_290_2463)"/>
<path d="M76.6703 41.0247C78.267 40.5825 78.8743 37.743 78.0267 34.6826C77.1792 31.6221 75.1976 29.4996 73.6009 29.9418C72.0041 30.3841 71.3968 33.2235 72.2444 36.284C73.092 39.3444 75.0735 41.4669 76.6703 41.0247Z" fill="#4B6370"/>
<path d="M66.0002 36C65.3752 36.5 65.0002 37.375 65.2502 38.125C65.5002 39 66.2502 39.5 67.0002 39.625L66.0002 36Z" fill="white"/>
<path d="M70.5 40C70.9833 40 71.375 39.6082 71.375 39.125C71.375 38.6417 70.9833 38.25 70.5 38.25C70.0168 38.25 69.625 38.6417 69.625 39.125C69.625 39.6082 70.0168 40 70.5 40Z" fill="#4B6370"/>
<path d="M69.25 35.5C69.7333 35.5 70.125 35.1083 70.125 34.625C70.125 34.1418 69.7333 33.75 69.25 33.75C68.7668 33.75 68.375 34.1418 68.375 34.625C68.375 35.1083 68.7668 35.5 69.25 35.5Z" fill="#4B6370"/>
<path d="M63.8748 54.375C62.4998 56.875 58.7498 55.375 59.3748 52.625C60.3748 48.625 60.4998 44.25 59.6248 39.875C58.7498 35.5 56.7498 31.625 54.2498 28.375C52.4998 26.125 55.3748 23.25 57.6248 25C61.8748 28.25 64.9998 33 66.1248 38.5C67.3748 44.125 66.3748 49.625 63.8748 54.375Z" fill="#12D69E"/>
<path d="M61.5001 39.25C61.0001 37.5 62.2501 35.875 64.1251 35.75L68.0001 35.625L68.8751 39L65.5001 40.875C64.0001 41.875 62.0001 41 61.5001 39.25Z" fill="#FF8F7D"/>
<path d="M69.3752 33.625C69.9966 33.625 70.5002 33.1213 70.5002 32.5C70.5002 31.8787 69.9966 31.375 69.3752 31.375C68.7539 31.375 68.2502 31.8787 68.2502 32.5C68.2502 33.1213 68.7539 33.625 69.3752 33.625Z" fill="#F9B9AA"/>
<path d="M72.2502 44C76.5305 44 80.0002 40.5302 80.0002 36.25C80.0002 31.9698 76.5305 28.5 72.2502 28.5C67.97 28.5 64.5002 31.9698 64.5002 36.25C64.5002 40.5302 67.97 44 72.2502 44Z" fill="url(#paint15_linear_290_2463)"/>
<path d="M71.75 43.25C72.5094 43.25 73.125 42.6344 73.125 41.875C73.125 41.1156 72.5094 40.5 71.75 40.5C70.9906 40.5 70.375 41.1156 70.375 41.875C70.375 42.6344 70.9906 43.25 71.75 43.25Z" fill="#F9B9AA"/>
<path d="M72.4999 42.25C69.1249 43.25 64.4999 41.75 63.6249 38.625C62.7499 35.5 65.9999 32 69.3749 31C72.7499 30 74.9999 32.125 75.8749 35.25C76.7499 38.25 75.8749 41.25 72.4999 42.25Z" fill="url(#paint16_linear_290_2463)"/>
<path d="M76.6703 41.0247C78.267 40.5825 78.8743 37.743 78.0267 34.6826C77.1792 31.6221 75.1976 29.4996 73.6009 29.9418C72.0041 30.3841 71.3968 33.2235 72.2444 36.284C73.092 39.3444 75.0735 41.4669 76.6703 41.0247Z" fill="#4B6370"/>
<path d="M66.0002 36C65.3752 36.5 65.0002 37.375 65.2502 38.125C65.5002 39 66.2502 39.5 67.0002 39.625L66.0002 36Z" fill="white"/>
<path d="M70.5 40C70.9833 40 71.375 39.6082 71.375 39.125C71.375 38.6417 70.9833 38.25 70.5 38.25C70.0168 38.25 69.625 38.6417 69.625 39.125C69.625 39.6082 70.0168 40 70.5 40Z" fill="#4B6370"/>
<path d="M69.25 35.5C69.7333 35.5 70.125 35.1083 70.125 34.625C70.125 34.1418 69.7333 33.75 69.25 33.75C68.7668 33.75 68.375 34.1418 68.375 34.625C68.375 35.1083 68.7668 35.5 69.25 35.5Z" fill="#4B6370"/>
</g>
<defs>
<linearGradient id="paint0_linear_290_2463" x1="27.4377" y1="40" x2="52.5627" y2="40" gradientUnits="userSpaceOnUse">
<stop stop-color="#E4E7E7"/>
<stop offset="1" stop-color="#CACCCC"/>
</linearGradient>
<linearGradient id="paint1_linear_290_2463" x1="56.346" y1="57.9052" x2="25.9929" y2="64.357" gradientUnits="userSpaceOnUse">
<stop stop-color="#FECB4D"/>
<stop offset="1" stop-color="#F49D03"/>
</linearGradient>
<linearGradient id="paint2_linear_290_2463" x1="45.2616" y1="75.5912" x2="42.6049" y2="65.9985" gradientUnits="userSpaceOnUse">
<stop stop-color="#4B6370"/>
<stop offset="1" stop-color="#2C4954"/>
</linearGradient>
<linearGradient id="paint3_linear_290_2463" x1="37.4426" y1="63.4806" x2="49.2495" y2="63.4806" gradientUnits="userSpaceOnUse">
<stop stop-color="#FFC9B9"/>
<stop offset="1" stop-color="#FFAA99"/>
</linearGradient>
<linearGradient id="paint4_linear_290_2463" x1="13.3367" y1="24.3517" x2="26.2894" y2="24.3517" gradientUnits="userSpaceOnUse">
<stop stop-color="#02BEFF"/>
<stop offset="1" stop-color="#009DC1"/>
</linearGradient>
<linearGradient id="paint5_linear_290_2463" x1="4.48318" y1="44.882" x2="14.0758" y2="42.2253" gradientUnits="userSpaceOnUse">
<stop stop-color="#4B6370"/>
<stop offset="1" stop-color="#2C4954"/>
</linearGradient>
<linearGradient id="paint6_linear_290_2463" x1="3.80762" y1="37.4426" x2="16.5193" y2="37.4426" gradientUnits="userSpaceOnUse">
<stop stop-color="#FFC9B9"/>
<stop offset="1" stop-color="#FFAA99"/>
</linearGradient>
<linearGradient id="paint7_linear_290_2463" x1="13.3367" y1="24.3517" x2="26.2894" y2="24.3517" gradientUnits="userSpaceOnUse">
<stop stop-color="#02BEFF"/>
<stop offset="1" stop-color="#009DC1"/>
</linearGradient>
<linearGradient id="paint8_linear_290_2463" x1="4.48318" y1="44.882" x2="14.0758" y2="42.2253" gradientUnits="userSpaceOnUse">
<stop stop-color="#4B6370"/>
<stop offset="1" stop-color="#2C4954"/>
</linearGradient>
<linearGradient id="paint9_linear_290_2463" x1="3.80762" y1="37.4426" x2="16.5193" y2="37.4426" gradientUnits="userSpaceOnUse">
<stop stop-color="#FFC9B9"/>
<stop offset="1" stop-color="#FFAA99"/>
</linearGradient>
<linearGradient id="paint10_linear_290_2463" x1="35.2904" y1="4.19829" x2="37.9471" y2="13.7909" gradientUnits="userSpaceOnUse">
<stop stop-color="#4B6370"/>
<stop offset="1" stop-color="#2C4954"/>
</linearGradient>
<linearGradient id="paint11_linear_290_2463" x1="30.7505" y1="3.80774" x2="42.5574" y2="3.80774" gradientUnits="userSpaceOnUse">
<stop stop-color="#FFC9B9"/>
<stop offset="1" stop-color="#FFAA99"/>
</linearGradient>
<linearGradient id="paint12_linear_290_2463" x1="53.7102" y1="24.4604" x2="66.6629" y2="24.4604" gradientUnits="userSpaceOnUse">
<stop stop-color="#02BEFF"/>
<stop offset="1" stop-color="#009DC1"/>
</linearGradient>
<linearGradient id="paint13_linear_290_2463" x1="75.9695" y1="35.0085" x2="66.3768" y2="37.6652" gradientUnits="userSpaceOnUse">
<stop stop-color="#4B6370"/>
<stop offset="1" stop-color="#2C4954"/>
</linearGradient>
<linearGradient id="paint14_linear_290_2463" x1="63.4805" y1="30.7505" x2="76.1921" y2="30.7505" gradientUnits="userSpaceOnUse">
<stop stop-color="#FFC9B9"/>
<stop offset="1" stop-color="#FFAA99"/>
</linearGradient>
<linearGradient id="paint15_linear_290_2463" x1="75.9695" y1="35.0085" x2="66.3768" y2="37.6652" gradientUnits="userSpaceOnUse">
<stop stop-color="#4B6370"/>
<stop offset="1" stop-color="#2C4954"/>
</linearGradient>
<linearGradient id="paint16_linear_290_2463" x1="63.4805" y1="30.7505" x2="76.1921" y2="30.7505" gradientUnits="userSpaceOnUse">
<stop stop-color="#FFC9B9"/>
<stop offset="1" stop-color="#FFAA99"/>
</linearGradient>
<clipPath id="clip0_290_2463">
<rect width="80" height="80" fill="white"/>
</clipPath>
</defs>
</svg>
